<svg width="22" height="22" viewBox="0 0 22 22" fill="none" xmlns="http://www.w3.org/2000/svg">
<path d="M6.25808 5.66061C6.09307 5.92177 5.87292 6.14367 5.61306 6.31074C5.3532 6.4778 5.05993 6.58598 4.75383 6.62769C4.4055 6.67719 4.05992 6.73036 3.71433 6.78811C2.74908 6.94852 2.0625 7.79827 2.0625 8.77636V16.5002C2.0625 17.0472 2.2798 17.5718 2.66659 17.9586C3.05339 18.3454 3.57799 18.5627 4.125 18.5627H17.875C18.422 18.5627 18.9466 18.3454 19.3334 17.9586C19.7202 17.5718 19.9375 17.0472 19.9375 16.5002V8.77636C19.9375 7.79827 19.25 6.94852 18.2857 6.78811C17.9398 6.73048 17.5933 6.67701 17.2462 6.62769C16.9402 6.58585 16.6471 6.47761 16.3875 6.31056C16.1278 6.1435 15.9077 5.92166 15.7428 5.66061L14.9893 4.45427C14.8201 4.17936 14.5871 3.94927 14.3101 3.78349C14.0331 3.6177 13.7202 3.5211 13.398 3.50185C11.8005 3.41605 10.1995 3.41605 8.602 3.50185C8.27975 3.5211 7.96688 3.6177 7.68988 3.78349C7.41288 3.94927 7.1799 4.17936 7.01067 4.45427L6.25808 5.66061Z" stroke="#8E8E8E" stroke-width="1.8" stroke-linecap="round" stroke-linejoin="round"/>
<path d="M15.125 11.6875C15.125 12.7815 14.6904 13.8307 13.9168 14.6043C13.1432 15.3779 12.094 15.8125 11 15.8125C9.90598 15.8125 8.85677 15.3779 8.08318 14.6043C7.3096 13.8307 6.875 12.7815 6.875 11.6875C6.875 10.5935 7.3096 9.54427 8.08318 8.77068C8.85677 7.9971 9.90598 7.5625 11 7.5625C12.094 7.5625 13.1432 7.9971 13.9168 8.77068C14.6904 9.54427 15.125 10.5935 15.125 11.6875ZM17.1875 9.625H17.1948V9.63233H17.1875V9.625Z" stroke="#8E8E8E" stroke-width="1.8" stroke-linecap="round" stroke-linejoin="round"/>
</svg>
