<svg width="15" height="15" viewBox="0 0 15 15" fill="none" xmlns="http://www.w3.org/2000/svg">
<path d="M12.6563 8.84375V11.5C12.6563 12.1837 12.1644 12.7725 11.4863 12.8625C10.1819 13.0356 8.85128 13.125 7.50003 13.125C6.14878 13.125 4.81816 13.0356 3.51378 12.8625C2.83566 12.7725 2.34378 12.1837 2.34378 11.5V8.84375M12.6563 8.84375C12.8047 8.71478 12.9234 8.55522 13.0043 8.37602C13.0853 8.19682 13.1264 8.00224 13.125 7.80563V5.44125C13.125 4.76563 12.645 4.18188 11.9769 4.08188C11.269 3.97589 10.5575 3.89521 9.84378 3.84M12.6563 8.84375C12.535 8.94687 12.3938 9.02812 12.2357 9.08125C10.7083 9.58803 9.10928 9.84549 7.50003 9.84375C5.84503 9.84375 4.25316 9.57562 2.76441 9.08125C2.6102 9.02995 2.46736 8.9493 2.34378 8.84375M2.34378 8.84375C2.19537 8.71478 2.07664 8.55522 1.99572 8.37602C1.91481 8.19682 1.87364 8.00224 1.87503 7.80563V5.44125C1.87503 4.76563 2.35503 4.18188 3.02316 4.08188C3.7311 3.97589 4.44259 3.89521 5.15628 3.84M9.84378 3.84V3.28125C9.84378 2.90829 9.69563 2.5506 9.4319 2.28688C9.16818 2.02316 8.8105 1.875 8.43753 1.875H6.56253C6.18957 1.875 5.83189 2.02316 5.56817 2.28688C5.30444 2.5506 5.15628 2.90829 5.15628 3.28125V3.84M9.84378 3.84C8.28361 3.71942 6.71646 3.71942 5.15628 3.84M7.50003 7.96875H7.50503V7.97375H7.50003V7.96875Z" stroke="#8E8E8E" stroke-width="1.5" stroke-linecap="round" stroke-linejoin="round"/>
</svg>
