<svg width="26" height="62" viewBox="0 0 26 62" fill="none" xmlns="http://www.w3.org/2000/svg">
<path d="M8.37626 17.3822C8.37626 7.9751 16.0022 0.349174 25.4093 0.349174V25.0022H8.37626V17.3822Z" fill="#E9E9EB" stroke="#E9E9EB" stroke-width="0.695398"/>
<rect x="8.37626" y="25.0013" width="17.033" height="11.9947" fill="#E9E9EB" stroke="#E9E9EB" stroke-width="0.695398"/>
<path fill-rule="evenodd" clip-rule="evenodd" d="M8.68457 47.8634C8.48175 46.8124 8.37553 45.727 8.37553 44.6168V36.9968H25.4085V61.6498C21.2841 61.6498 17.5021 60.1839 14.555 57.7447C11.6148 59.7034 6.90034 61.5652 1.20445 60.5296C2.77328 59.8572 8.82449 55.8231 8.60037 47.7548C8.6273 47.7918 8.65538 47.828 8.68457 47.8634Z" fill="#E9E9EB"/>
<path d="M8.68457 47.8634L8.41523 48.0857L9.02746 47.7972L8.68457 47.8634ZM8.37553 36.9968V36.6476H8.02632V36.9968H8.37553ZM25.4085 36.9968H25.7578V36.6476H25.4085V36.9968ZM25.4085 61.6498V61.999H25.7578V61.6498H25.4085ZM14.555 57.7447L14.7777 57.4756L14.5776 57.31L14.3614 57.454L14.555 57.7447ZM1.20445 60.5296L1.06689 60.2086L0.000502266 60.6656L1.14199 60.8731L1.20445 60.5296ZM8.60037 47.7548L8.88279 47.5494L8.22 46.6381L8.25129 47.7645L8.60037 47.7548ZM8.02632 44.6168C8.02632 45.7493 8.13467 46.8569 8.34168 47.9296L9.02746 47.7972C8.82882 46.7679 8.72475 45.7047 8.72475 44.6168H8.02632ZM8.02632 36.9968V44.6168H8.72475V36.9968H8.02632ZM25.4085 36.6476H8.37553V37.346H25.4085V36.6476ZM25.7578 61.6498V36.9968H25.0593V61.6498H25.7578ZM14.3324 58.0137C17.3397 60.5028 21.1999 61.999 25.4085 61.999V61.3006C21.3684 61.3006 17.6644 59.865 14.7777 57.4756L14.3324 58.0137ZM1.14199 60.8731C6.9491 61.929 11.7543 60.03 14.7487 58.0353L14.3614 57.454C11.4753 59.3767 6.85158 61.2014 1.26692 60.186L1.14199 60.8731ZM8.25129 47.7645C8.36067 51.7022 6.94068 54.6492 5.30207 56.6975C3.65662 58.7543 1.79781 59.8953 1.06689 60.2086L1.34202 60.8505C2.17993 60.4914 4.13114 59.2792 5.84746 57.1338C7.57064 54.9798 9.06419 51.8756 8.94945 47.7451L8.25129 47.7645ZM8.95392 47.6411C8.92918 47.6111 8.90547 47.5806 8.88279 47.5494L8.31794 47.9602C8.34914 48.0031 8.38158 48.0449 8.41523 48.0857L8.95392 47.6411Z" fill="#E9E9EB"/>
</svg>
