<svg width="14" height="14" viewBox="0 0 14 14" fill="none" xmlns="http://www.w3.org/2000/svg">
<g clip-path="url(#clip0_1009_26332)">
<path d="M9.09417 8.3825C9.21563 8.89646 9.21922 9.43124 9.10465 9.94678C8.99008 10.4623 8.76033 10.9453 8.43261 11.3594C8.1049 11.7735 7.68771 12.1081 7.21231 12.3381C6.7369 12.5681 6.21562 12.6876 5.6875 12.6875V9.8875M9.09417 8.3825C10.2083 7.57096 11.1146 6.50737 11.7391 5.27863C12.3636 4.04989 12.6886 2.69084 12.6875 1.3125C11.3093 1.31151 9.95033 1.63654 8.72169 2.26104C7.49306 2.88555 6.42957 3.79182 5.61808 4.90584M9.09417 8.3825C8.08028 9.12408 6.91852 9.63749 5.6875 9.8875M5.6875 9.8875C5.62742 9.89975 5.56675 9.91142 5.50608 9.9225C4.97688 9.50286 4.49772 9.02371 4.07808 8.4945C4.0891 8.43371 4.10019 8.37304 4.1125 8.3125M5.61808 4.90584C5.10408 4.78427 4.56924 4.78061 4.05362 4.89513C3.53801 5.00965 3.055 5.23938 2.64079 5.56711C2.22659 5.89484 1.89192 6.31206 1.66189 6.78752C1.43185 7.26297 1.3124 7.78432 1.3125 8.3125H4.1125M5.61808 4.90584C4.8766 5.91956 4.36261 7.0817 4.1125 8.3125M2.80642 9.70667C2.42269 9.99201 2.12434 10.3769 1.94368 10.8197C1.76302 11.2624 1.70694 11.7462 1.7815 12.2185C2.2539 12.293 2.73768 12.2368 3.18044 12.0561C3.6232 11.8753 4.00806 11.5768 4.29333 11.193M9.625 5.25C9.625 5.48207 9.53281 5.70463 9.36872 5.86872C9.20462 6.03282 8.98206 6.125 8.75 6.125C8.51794 6.125 8.29538 6.03282 8.13128 5.86872C7.96719 5.70463 7.875 5.48207 7.875 5.25C7.875 5.01794 7.96719 4.79538 8.13128 4.63128C8.29538 4.46719 8.51794 4.375 8.75 4.375C8.98206 4.375 9.20462 4.46719 9.36872 4.63128C9.53281 4.79538 9.625 5.01794 9.625 5.25Z" stroke="white" stroke-width="1.2" stroke-linecap="round" stroke-linejoin="round"/>
</g>
<defs>
<clipPath id="clip0_1009_26332">
<rect width="14" height="14" fill="white"/>
</clipPath>
</defs>
</svg>
