<svg width="25" height="25" viewBox="0 0 25 25" fill="none" xmlns="http://www.w3.org/2000/svg">
<path d="M11.7187 17.1875C11.4974 17.1875 11.3117 17.1125 11.1617 16.9625C11.0117 16.8125 10.937 16.6271 10.9375 16.4062C10.9375 16.1849 11.0125 15.9992 11.1625 15.8492C11.3125 15.6992 11.4979 15.6245 11.7187 15.625H13.2812C13.5026 15.625 13.6883 15.7 13.8383 15.85C13.9883 16 14.063 16.1854 14.0625 16.4062C14.0625 16.6276 13.9875 16.8133 13.8375 16.9633C13.6875 17.1133 13.5021 17.188 13.2812 17.1875H11.7187ZM6.25 9.375C6.02865 9.375 5.84297 9.3 5.69297 9.15C5.54297 9 5.46823 8.81459 5.46875 8.59375C5.46875 8.3724 5.54375 8.18672 5.69375 8.03672C5.84375 7.88672 6.02917 7.81198 6.25 7.8125H18.75C18.9713 7.8125 19.157 7.8875 19.307 8.0375C19.457 8.1875 19.5318 8.37292 19.5312 8.59375C19.5312 8.81511 19.4562 9.00078 19.3062 9.15078C19.1562 9.30078 18.9708 9.37552 18.75 9.375H6.25ZM8.59375 13.2812C8.3724 13.2812 8.18672 13.2062 8.03672 13.0562C7.88672 12.9062 7.81198 12.7208 7.8125 12.5C7.8125 12.2786 7.8875 12.093 8.0375 11.943C8.1875 11.793 8.37292 11.7182 8.59375 11.7188H16.4062C16.6276 11.7188 16.8133 11.7938 16.9633 11.9438C17.1133 12.0938 17.188 12.2792 17.1875 12.5C17.1875 12.7214 17.1125 12.907 16.9625 13.057C16.8125 13.207 16.6271 13.2818 16.4062 13.2812H8.59375Z" fill="black"/>
</svg>
