<svg width="15" height="15" viewBox="0 0 15 15" fill="none" xmlns="http://www.w3.org/2000/svg">
<g opacity="0.7">
<path fill-rule="evenodd" clip-rule="evenodd" d="M7.2675 14.1998L7.26975 14.2005C7.4175 14.265 7.5 14.25 7.5 14.25C7.5 14.25 7.5825 14.265 7.731 14.2005L7.7325 14.1998L7.737 14.1975L7.7505 14.1915C7.82169 14.1584 7.89197 14.1234 7.96125 14.0865C8.10075 14.0145 8.29575 13.9065 8.529 13.7618C8.994 13.4738 9.61275 13.0372 10.2345 12.438C11.4765 11.241 12.75 9.36975 12.75 6.75C12.75 6.06056 12.6142 5.37787 12.3504 4.74091C12.0865 4.10395 11.6998 3.5252 11.2123 3.03769C10.7248 2.55018 10.146 2.16347 9.50909 1.89963C8.87213 1.6358 8.18944 1.5 7.5 1.5C6.81056 1.5 6.12787 1.6358 5.49091 1.89963C4.85395 2.16347 4.2752 2.55018 3.78769 3.03769C3.30018 3.5252 2.91347 4.10395 2.64963 4.74091C2.3858 5.37787 2.25 6.06056 2.25 6.75C2.25 9.369 3.5235 11.241 4.76625 12.438C5.28656 12.9377 5.85795 13.3814 6.471 13.7618C6.70844 13.9092 6.95272 14.0453 7.203 14.1698L7.2495 14.1915L7.263 14.1975L7.2675 14.1998ZM7.5 8.4375C7.94755 8.4375 8.37677 8.25971 8.69324 7.94324C9.00971 7.62677 9.1875 7.19755 9.1875 6.75C9.1875 6.30245 9.00971 5.87323 8.69324 5.55676C8.37677 5.24029 7.94755 5.0625 7.5 5.0625C7.05245 5.0625 6.62323 5.24029 6.30676 5.55676C5.99029 5.87323 5.8125 6.30245 5.8125 6.75C5.8125 7.19755 5.99029 7.62677 6.30676 7.94324C6.62323 8.25971 7.05245 8.4375 7.5 8.4375Z" fill="#717171"/>
</g>
</svg>
