<svg width="75" height="15" viewBox="0 0 75 15" fill="none" xmlns="http://www.w3.org/2000/svg">
<path d="M8.86715 5.42364L9.04306 5.84669L9.49977 5.88329L12.8773 6.15391L12.8774 6.15393C12.9036 6.15601 12.9124 6.16309 12.9162 6.16625C12.9232 6.17205 12.9327 6.18382 12.9387 6.2021C12.9446 6.22039 12.9438 6.23555 12.9416 6.24441C12.9403 6.24927 12.9373 6.26025 12.9173 6.27736C12.9173 6.27738 12.9173 6.27739 12.9173 6.2774L10.3442 8.48174L9.99641 8.77971L10.1026 9.22522L10.8882 12.5208L10.8883 12.521C10.8944 12.5466 10.8903 12.5572 10.8885 12.5618C10.8851 12.5703 10.8769 12.583 10.8613 12.5943C10.8458 12.6056 10.8311 12.6095 10.822 12.6101C10.8171 12.6105 10.8058 12.611 10.7836 12.5974L7.89184 10.8312L7.50092 10.5925L7.10999 10.8312L4.21827 12.5974C4.19611 12.6109 4.18497 12.6104 4.18005 12.6101C4.17099 12.6095 4.15629 12.6055 4.14064 12.5942C4.12499 12.5828 4.11668 12.57 4.11331 12.5615C4.11146 12.5569 4.1075 12.5464 4.11354 12.5211L4.1136 12.5208L4.89922 9.22522L5.00543 8.77971L4.65761 8.48174L2.08453 6.2774C2.06453 6.26027 2.06152 6.24927 2.06028 6.24441C2.05802 6.23555 2.05724 6.22039 2.06318 6.2021C2.06912 6.18382 2.07865 6.17205 2.08564 6.16625C2.08945 6.16309 2.09827 6.15601 2.1244 6.15393L2.12457 6.15391L5.50207 5.88329L5.95877 5.84669L6.13468 5.42364L7.4359 2.29436C7.43591 2.29433 7.43592 2.2943 7.43593 2.29427C7.4458 2.2706 7.45503 2.26454 7.45925 2.26187C7.467 2.25698 7.48136 2.25146 7.50092 2.25146C7.52047 2.25146 7.53483 2.25698 7.54258 2.26187C7.54681 2.26454 7.55604 2.2706 7.5659 2.29427C7.56591 2.2943 7.56593 2.29433 7.56594 2.29436L8.86715 5.42364Z" fill="#FBBA13" stroke="#FBBA13" stroke-width="1.5"/>
<path d="M23.8672 5.42364L24.0431 5.84669L24.4998 5.88329L27.8773 6.15391L27.8774 6.15393C27.9036 6.15601 27.9124 6.16309 27.9162 6.16625C27.9232 6.17205 27.9327 6.18382 27.9387 6.2021C27.9446 6.22039 27.9438 6.23555 27.9416 6.24441C27.9403 6.24927 27.9373 6.26025 27.9173 6.27736C27.9173 6.27738 27.9173 6.27739 27.9173 6.2774L25.3442 8.48174L24.9964 8.77971L25.1026 9.22522L25.8882 12.5208L25.8883 12.521C25.8944 12.5466 25.8903 12.5572 25.8885 12.5618C25.8851 12.5703 25.8769 12.583 25.8613 12.5943C25.8458 12.6056 25.8311 12.6095 25.822 12.6101C25.8171 12.6105 25.8058 12.611 25.7836 12.5974L22.8918 10.8312L22.5009 10.5925L22.11 10.8312L19.2183 12.5974C19.1961 12.6109 19.185 12.6104 19.18 12.6101C19.171 12.6095 19.1563 12.6055 19.1406 12.5942C19.125 12.5828 19.1167 12.57 19.1133 12.5615C19.1115 12.5569 19.1075 12.5464 19.1135 12.5211L19.1136 12.5208L19.8992 9.22522L20.0054 8.77971L19.6576 8.48174L17.0845 6.2774C17.0645 6.26027 17.0615 6.24927 17.0603 6.24441C17.058 6.23555 17.0572 6.22039 17.0632 6.2021C17.0691 6.18382 17.0787 6.17205 17.0856 6.16625C17.0894 6.16309 17.0983 6.15601 17.1244 6.15393L17.1246 6.15391L20.5021 5.88329L20.9588 5.84669L21.1347 5.42364L22.4359 2.29436C22.4359 2.29433 22.4359 2.2943 22.4359 2.29427C22.4458 2.2706 22.455 2.26454 22.4593 2.26187C22.467 2.25698 22.4814 2.25146 22.5009 2.25146C22.5205 2.25146 22.5348 2.25698 22.5426 2.26187C22.5468 2.26454 22.556 2.2706 22.5659 2.29427C22.5659 2.2943 22.5659 2.29433 22.5659 2.29436L23.8672 5.42364Z" fill="#FBBA13" stroke="#FBBA13" stroke-width="1.5"/>
<path d="M38.8672 5.42364L39.0431 5.84669L39.4998 5.88329L42.8773 6.15391L42.8774 6.15393C42.9036 6.15601 42.9124 6.16309 42.9162 6.16625C42.9232 6.17205 42.9327 6.18382 42.9387 6.2021C42.9446 6.22039 42.9438 6.23555 42.9416 6.24441C42.9403 6.24927 42.9373 6.26025 42.9173 6.27736C42.9173 6.27738 42.9173 6.27739 42.9173 6.2774L40.3442 8.48174L39.9964 8.77971L40.1026 9.22522L40.8882 12.5208L40.8883 12.521C40.8944 12.5466 40.8903 12.5572 40.8885 12.5618C40.8851 12.5703 40.8769 12.583 40.8613 12.5943C40.8458 12.6056 40.8311 12.6095 40.822 12.6101C40.8171 12.6105 40.8058 12.611 40.7836 12.5974L37.8918 10.8312L37.5009 10.5925L37.11 10.8312L34.2183 12.5974C34.1961 12.6109 34.185 12.6104 34.18 12.6101C34.171 12.6095 34.1563 12.6055 34.1406 12.5942C34.125 12.5828 34.1167 12.57 34.1133 12.5615C34.1115 12.5569 34.1075 12.5464 34.1135 12.5211L34.1136 12.5208L34.8992 9.22522L35.0054 8.77971L34.6576 8.48174L32.0845 6.2774C32.0645 6.26027 32.0615 6.24927 32.0603 6.24441C32.058 6.23555 32.0572 6.22039 32.0632 6.2021C32.0691 6.18382 32.0787 6.17205 32.0856 6.16625C32.0894 6.16309 32.0983 6.15601 32.1244 6.15393L32.1246 6.15391L35.5021 5.88329L35.9588 5.84669L36.1347 5.42364L37.4359 2.29436C37.4359 2.29433 37.4359 2.2943 37.4359 2.29427C37.4458 2.2706 37.455 2.26454 37.4593 2.26187C37.467 2.25698 37.4814 2.25146 37.5009 2.25146C37.5205 2.25146 37.5348 2.25698 37.5426 2.26187C37.5468 2.26454 37.556 2.2706 37.5659 2.29427C37.5659 2.2943 37.5659 2.29433 37.5659 2.29436L38.8672 5.42364Z" stroke="#FBBA13" stroke-width="1.5"/>
<path d="M53.8672 5.42364L54.0431 5.84669L54.4998 5.88329L57.8773 6.15391L57.8774 6.15393C57.9036 6.15601 57.9124 6.16309 57.9162 6.16625C57.9232 6.17205 57.9327 6.18382 57.9387 6.2021C57.9446 6.22039 57.9438 6.23555 57.9416 6.24441C57.9403 6.24927 57.9373 6.26025 57.9173 6.27736C57.9173 6.27738 57.9173 6.27739 57.9173 6.2774L55.3442 8.48174L54.9964 8.77971L55.1026 9.22522L55.8882 12.5208L55.8883 12.521C55.8944 12.5466 55.8903 12.5572 55.8885 12.5618C55.8851 12.5703 55.8769 12.583 55.8613 12.5943C55.8458 12.6056 55.8311 12.6095 55.822 12.6101C55.8171 12.6105 55.8058 12.611 55.7836 12.5974L52.8918 10.8312L52.5009 10.5925L52.11 10.8312L49.2183 12.5974C49.1961 12.6109 49.185 12.6104 49.18 12.6101C49.171 12.6095 49.1563 12.6055 49.1406 12.5942C49.125 12.5828 49.1167 12.57 49.1133 12.5615C49.1115 12.5569 49.1075 12.5464 49.1135 12.5211L49.1136 12.5208L49.8992 9.22522L50.0054 8.77971L49.6576 8.48174L47.0845 6.2774C47.0645 6.26027 47.0615 6.24927 47.0603 6.24441C47.058 6.23555 47.0572 6.22039 47.0632 6.2021C47.0691 6.18382 47.0787 6.17205 47.0856 6.16625C47.0894 6.16309 47.0983 6.15601 47.1244 6.15393L47.1246 6.15391L50.5021 5.88329L50.9588 5.84669L51.1347 5.42364L52.4359 2.29436C52.4359 2.29433 52.4359 2.2943 52.4359 2.29427C52.4458 2.2706 52.455 2.26454 52.4593 2.26187C52.467 2.25698 52.4814 2.25146 52.5009 2.25146C52.5205 2.25146 52.5348 2.25698 52.5426 2.26187C52.5468 2.26454 52.556 2.2706 52.5659 2.29427C52.5659 2.2943 52.5659 2.29433 52.5659 2.29436L53.8672 5.42364Z" stroke="#FBBA13" stroke-width="1.5"/>
<path d="M68.8672 5.42364L69.0431 5.84669L69.4998 5.88329L72.8773 6.15391L72.8774 6.15393C72.9036 6.15601 72.9124 6.16309 72.9162 6.16625C72.9232 6.17205 72.9327 6.18382 72.9387 6.2021C72.9446 6.22039 72.9438 6.23555 72.9416 6.24441C72.9403 6.24927 72.9373 6.26025 72.9173 6.27736C72.9173 6.27738 72.9173 6.27739 72.9173 6.2774L70.3442 8.48174L69.9964 8.77971L70.1026 9.22522L70.8882 12.5208L70.8883 12.521C70.8944 12.5466 70.8903 12.5572 70.8885 12.5618C70.8851 12.5703 70.8769 12.583 70.8613 12.5943C70.8458 12.6056 70.8311 12.6095 70.822 12.6101C70.8171 12.6105 70.8058 12.611 70.7836 12.5974L67.8918 10.8312L67.5009 10.5925L67.11 10.8312L64.2183 12.5974C64.1961 12.6109 64.185 12.6104 64.18 12.6101C64.171 12.6095 64.1563 12.6055 64.1406 12.5942C64.125 12.5828 64.1167 12.57 64.1133 12.5615C64.1115 12.5569 64.1075 12.5464 64.1135 12.5211L64.1136 12.5208L64.8992 9.22522L65.0054 8.77971L64.6576 8.48174L62.0845 6.2774C62.0645 6.26027 62.0615 6.24927 62.0603 6.24441C62.058 6.23555 62.0572 6.22039 62.0632 6.2021C62.0691 6.18382 62.0787 6.17205 62.0856 6.16625C62.0894 6.16309 62.0983 6.15601 62.1244 6.15393L62.1246 6.15391L65.5021 5.88329L65.9588 5.84669L66.1347 5.42364L67.4359 2.29436C67.4359 2.29433 67.4359 2.2943 67.4359 2.29427C67.4458 2.2706 67.455 2.26454 67.4593 2.26187C67.467 2.25698 67.4814 2.25146 67.5009 2.25146C67.5205 2.25146 67.5348 2.25698 67.5426 2.26187C67.5468 2.26454 67.556 2.2706 67.5659 2.29427C67.5659 2.2943 67.5659 2.29433 67.5659 2.29436L68.8672 5.42364Z" stroke="#FBBA13" stroke-width="1.5"/>
</svg>
