<svg width="14" height="14" viewBox="0 0 14 14" fill="none" xmlns="http://www.w3.org/2000/svg">
<g clip-path="url(#clip0_1003_18877)">
<path d="M13.7589 8.82583C13.9158 8.24357 14 7.63157 14 6.99973C14 6.3679 13.9158 5.75589 13.7589 5.17364L6.3913 0.0263672C5.02354 0.144219 3.76838 0.655273 2.73913 1.44608L0.241145 5.17364C0.0842188 5.75589 0 6.3679 0 6.99973C0 7.62787 0.083207 8.23652 0.238383 8.81571L2.73911 12.5534C3.76835 13.3442 5.02351 13.8553 6.39127 13.9731L13.7589 8.82583Z" fill="#FFDA44"/>
<path d="M0.240234 8.82617C0.64525 10.329 1.53789 11.6315 2.73822 12.5537V8.82617H0.240234Z" fill="#0052B4"/>
<path d="M6.39062 13.9735C6.59127 13.9907 6.79419 14.0001 6.99932 14.0001C10.2335 14.0001 12.9549 11.8065 13.7582 8.82617H6.39062V13.9735Z" fill="#0052B4"/>
<path d="M13.7582 5.1739C12.9549 2.19354 10.2335 0 6.99932 0C6.79419 0 6.59127 0.00935156 6.39062 0.0266328V5.1739H13.7582Z" fill="#0052B4"/>
<path d="M2.73822 1.44653C1.53789 2.36884 0.64525 3.6713 0.240234 5.17409H2.73822V1.44653Z" fill="#0052B4"/>
<path d="M13.9407 6.08659H5.47829H5.47827V0.166016C4.83137 0.309461 4.21807 0.541965 3.65217 0.850758V6.08657H0.0592539C0.0202891 6.38546 0 6.69018 0 6.99963C0 7.30908 0.0202891 7.6138 0.0592539 7.91266H3.65214H3.65217V13.1485C4.21807 13.4572 4.83137 13.6898 5.47827 13.8332V7.91275V7.91269H13.9407C13.9797 7.6138 14 7.30908 14 6.99963C14 6.69018 13.9797 6.38546 13.9407 6.08659Z" fill="#D80027"/>
</g>
<defs>
<clipPath id="clip0_1003_18877">
<rect width="14" height="14" fill="white"/>
</clipPath>
</defs>
</svg>
