<svg width="117" height="130" viewBox="0 0 117 130" fill="none" xmlns="http://www.w3.org/2000/svg">
<g clip-path="url(#clip0_1017_8037)">
<path d="M110.989 122.533C110.263 122.788 109.483 122.852 108.725 122.718C107.967 122.585 107.257 122.258 106.662 121.77C105.146 120.498 104.67 118.403 104.284 116.462L103.141 110.722L105.535 112.371C107.257 113.557 109.017 114.78 110.209 116.497C111.401 118.215 111.922 120.559 110.964 122.417" fill="#E6E6E6"/>
<path d="M110.783 129.482C111.025 127.717 111.274 125.929 111.104 124.145C110.953 122.56 110.47 121.013 109.486 119.744C108.964 119.072 108.328 118.496 107.608 118.042C107.42 117.924 107.247 118.221 107.434 118.339C108.68 119.127 109.644 120.29 110.187 121.661C110.786 123.185 110.882 124.847 110.778 126.466C110.716 127.445 110.584 128.418 110.45 129.39C110.439 129.434 110.446 129.48 110.468 129.52C110.491 129.559 110.527 129.589 110.57 129.602C110.614 129.614 110.661 129.608 110.701 129.585C110.741 129.563 110.77 129.525 110.782 129.482L110.783 129.482Z" fill="#F2F2F2"/>
<path d="M102.106 100.164H1.94141V0H102.106V100.164Z" fill="white"/>
<path d="M102.106 100.164H1.94141V0H102.106V100.164ZM3.42131 98.6842H100.626V1.47992H3.42131V98.6842Z" fill="#E5E5E5"/>
<path d="M84.3616 15.6707H40.9863V17.0218H84.3616V15.6707Z" fill="#E5E5E5"/>
<path d="M84.3616 19.1838H40.9863V20.535H84.3616V19.1838Z" fill="#E5E5E5"/>
<path d="M84.3616 22.6968H40.9863V24.0479H84.3616V22.6968Z" fill="#E5E5E5"/>
<path d="M84.3616 45.8364H40.9863V47.1876H84.3616V45.8364Z" fill="#E5E5E5"/>
<path d="M84.3616 49.3494H40.9863V50.7005H84.3616V49.3494Z" fill="#E5E5E5"/>
<path d="M84.3616 52.8623H40.9863V54.2135H84.3616V52.8623Z" fill="#E5E5E5"/>
<path d="M84.3616 76.002H40.9863V77.3531H84.3616V76.002Z" fill="#E5E5E5"/>
<path d="M84.3616 79.5149H40.9863V80.8661H84.3616V79.5149Z" fill="#E5E5E5"/>
<path d="M84.3616 83.0281H40.9863V84.3792H84.3616V83.0281Z" fill="#E5E5E5"/>
<path d="M23.6232 26.4361C22.8822 26.0456 22.1087 25.7201 21.3115 25.4633L21.2098 24.3387L17.0871 23.8945L16.5631 25.3319L15.0835 25.8871C15.0306 25.9072 14.9802 25.9334 14.9334 25.9653H14.9318C14.8492 26.0211 14.7789 26.0932 14.7251 26.1771C14.6713 26.261 14.6352 26.355 14.619 26.4533C14.6032 26.5511 14.6069 26.651 14.63 26.7473L14.7082 27.0679C14.8207 27.1352 14.9365 27.1993 15.0522 27.2603L15.1258 27.2979C15.2947 27.3854 15.4667 27.4683 15.6435 27.545C15.6794 27.5606 15.7185 27.5763 15.7545 27.5919C15.7576 27.5935 15.7592 27.5935 15.7623 27.595C15.8452 27.6294 15.9281 27.6623 16.0126 27.6936C16.29 27.7995 16.573 27.8904 16.8603 27.9657C17.5934 28.1611 18.349 28.26 19.1078 28.2597C19.3846 28.2597 19.6583 28.2472 19.9289 28.2206C20.5472 28.1636 21.1575 28.0404 21.7495 27.8531C21.751 27.8531 21.7526 27.8515 21.7541 27.8515C22.1281 27.7324 22.4934 27.5876 22.8474 27.4183C22.8489 27.4167 22.8521 27.4167 22.8537 27.4152C22.9334 27.3776 23.0101 27.337 23.0883 27.2979L23.1258 27.2791C23.1883 27.2462 23.251 27.2134 23.3135 27.179C23.4699 27.093 23.6232 27.0023 23.7748 26.9053C23.8171 26.8802 23.8578 26.8537 23.9 26.8255C23.9594 26.7864 24.0188 26.7458 24.0767 26.7035C23.9313 26.6097 23.7796 26.5205 23.6232 26.4361Z" fill="#3F3D56"/>
<path d="M15.8843 27.1288L15.6263 25.9636H14.9522C14.9454 25.9637 14.9386 25.9642 14.9319 25.9652H14.9303C14.688 25.9857 14.4547 26.0663 14.2515 26.1998C14.1137 26.2878 13.9911 26.3977 13.8887 26.5251C14.0888 26.6768 14.2969 26.8176 14.5112 26.9521L14.5205 26.9568C14.5815 26.9943 14.6441 27.0319 14.7067 27.0678C14.8192 27.1351 14.935 27.1992 15.0507 27.2602L15.1243 27.2977C15.2932 27.3853 15.4652 27.4682 15.642 27.5448C15.6779 27.5605 15.717 27.5761 15.753 27.5918C15.7561 27.5933 15.7577 27.5933 15.7608 27.5949C15.8437 27.6293 15.9266 27.6622 16.011 27.6934L15.8843 27.1288Z" fill="#3F3D56"/>
<path d="M18.9868 23.1836C20.6267 23.1836 21.9561 21.8543 21.9561 20.2144C21.9561 18.5745 20.6267 17.2451 18.9868 17.2451C17.347 17.2451 16.0176 18.5745 16.0176 20.2144C16.0176 21.8543 17.347 23.1836 18.9868 23.1836Z" fill="#FFB8B8"/>
<path d="M16.9916 18.7681C17.299 19.1318 17.8191 19.2345 18.299 19.2766C19.4209 19.3385 20.5459 19.2467 21.6429 19.0035C21.7108 19.6623 21.5255 20.3727 21.9136 20.9146C22.0955 20.2585 22.2012 19.5837 22.2288 18.9034C22.2577 18.6115 22.2196 18.3169 22.1174 18.042C22.0627 17.9042 21.9704 17.7846 21.8511 17.6966C21.7318 17.6087 21.5903 17.5559 21.4425 17.5444C21.6637 17.3766 21.9228 17.2658 22.197 17.2219L21.2542 16.7481L21.4963 16.4995L19.7894 16.3951L20.2838 16.081C19.5397 15.9787 18.7869 15.955 18.0379 16.0101C17.6878 16.0103 17.3445 16.1057 17.0445 16.2862C16.7627 16.4877 16.5999 16.8883 16.7748 17.1842C16.5558 17.2202 16.3496 17.3114 16.1757 17.4494C16.0018 17.5874 15.866 17.7675 15.7812 17.9726C15.6739 18.2986 15.648 18.646 15.7058 18.9843C15.7701 19.5272 15.8962 20.0609 16.0818 20.5751L16.9916 18.7681Z" fill="#2F2E41"/>
<path d="M27.3365 16.9955C26.9199 15.7986 26.2472 14.7071 25.3654 13.7969C24.4836 12.8868 23.4139 12.18 22.2308 11.7257C21.0478 11.2715 19.7799 11.0808 18.5156 11.1669C17.2512 11.253 16.0209 11.6139 14.9104 12.2243C13.7998 12.8348 12.8358 13.6801 12.0856 14.7015C11.3353 15.7228 10.8169 16.8954 10.5664 18.1377C10.3159 19.38 10.3395 20.6619 10.6353 21.8941C10.9312 23.1264 11.4923 24.2792 12.2795 25.2723C12.3577 25.3709 12.439 25.4694 12.522 25.5648C12.5282 25.5711 12.5329 25.5773 12.5392 25.5836C12.743 25.8185 12.9597 26.042 13.1882 26.253C13.2477 26.3077 13.3103 26.364 13.3728 26.4172C13.4916 26.5236 13.6137 26.6252 13.7404 26.7222C13.7904 26.7613 13.8389 26.8004 13.8905 26.8379C14.0907 26.9897 14.2987 27.1304 14.513 27.2649L14.5224 27.2696C14.5833 27.3071 14.646 27.3447 14.7085 27.3807C14.8211 27.4479 14.9368 27.512 15.0525 27.573L15.1261 27.6106C15.295 27.6982 15.4671 27.7811 15.6438 27.8577C15.6798 27.8733 15.7189 27.889 15.7548 27.9046C15.758 27.9062 15.7595 27.9062 15.7626 27.9077C15.8456 27.9422 15.9284 27.975 16.0129 28.0063C16.2903 28.1122 16.5733 28.2031 16.8606 28.2784C17.5938 28.4738 18.3493 28.5727 19.1081 28.5725C19.3849 28.5725 19.6587 28.5599 19.9292 28.5334C20.5475 28.4763 21.1578 28.3531 21.7498 28.1658C21.7513 28.1658 21.7529 28.1642 21.7545 28.1642C22.1284 28.0451 22.4937 27.9004 22.8477 27.731C22.8493 27.7294 22.8524 27.7294 22.854 27.7279C22.9337 27.6903 23.0104 27.6497 23.0886 27.6106L23.1261 27.5918C23.1887 27.559 23.2513 27.5261 23.3138 27.4917C23.4702 27.4057 23.6235 27.315 23.7752 27.218C23.8174 27.193 23.8581 27.1664 23.9003 27.1382C23.9598 27.0991 24.0192 27.0585 24.0771 27.0162C24.1537 26.9631 24.2303 26.9083 24.3054 26.852C24.3288 26.8348 24.3539 26.8176 24.3773 26.7988C25.8426 25.6866 26.9182 24.1391 27.4498 22.3779C27.9813 20.6168 27.9417 18.7326 27.3365 16.9955ZM24.0896 26.4188C24.038 26.4594 23.9848 26.4985 23.9316 26.5345C23.88 26.5736 23.8284 26.6112 23.7752 26.6456C23.7298 26.6784 23.6844 26.7097 23.6376 26.7394L23.6235 26.7488C23.5891 26.7723 23.5547 26.7941 23.5203 26.816C23.3904 26.8974 23.259 26.9756 23.1261 27.0506L23.0839 27.0741C23.0245 27.107 22.9651 27.1382 22.9056 27.1695C22.8978 27.1742 22.8884 27.1773 22.8806 27.182L22.8712 27.1867C22.7961 27.2258 22.7195 27.2634 22.6429 27.2993C22.3471 27.4417 22.0425 27.565 21.731 27.6684C21.6903 27.6825 21.6497 27.6966 21.6091 27.7091C21.0487 27.8873 20.4709 28.0048 19.8855 28.0595C19.629 28.0829 19.3693 28.0954 19.1081 28.0954C18.3904 28.0969 17.6757 28.0033 16.9826 27.817C16.6269 27.7242 16.2783 27.6061 15.9394 27.4636C15.9222 27.4557 15.9034 27.4495 15.8862 27.4417C15.8675 27.4338 15.8502 27.4276 15.833 27.4198C15.8143 27.4119 15.7971 27.4041 15.7783 27.3947C15.6313 27.3306 15.4858 27.2602 15.3435 27.1867L15.2747 27.1508C15.101 27.06 14.9306 26.9631 14.7648 26.8598C14.7163 26.8301 14.6663 26.7988 14.6193 26.766C14.6069 26.7582 14.5959 26.7504 14.5833 26.7425C14.4723 26.669 14.3613 26.5924 14.2533 26.5126C14.1799 26.4579 14.1063 26.4031 14.0344 26.3468C13.914 26.2561 13.7982 26.1591 13.6856 26.059C13.6262 26.009 13.5683 25.9543 13.512 25.9026C13.2903 25.6979 13.0803 25.4807 12.8833 25.252C12.8176 25.1769 12.7535 25.1019 12.6924 25.0237C12.6786 25.0082 12.6655 24.992 12.6533 24.9752C11.6371 23.6928 11.0259 22.1369 10.8976 20.5058C10.7693 18.8747 11.1297 17.2423 11.9329 15.8168C12.7361 14.3914 13.9456 13.2374 15.4073 12.5022C16.8689 11.767 18.5165 11.4837 20.1397 11.6886C21.763 11.8935 23.2885 12.5773 24.5216 13.6527C25.7547 14.7281 26.6396 16.1464 27.0633 17.7267C27.4871 19.3071 27.4305 20.9778 26.9009 22.5259C26.3713 24.074 25.3926 25.4292 24.0896 26.4188Z" fill="#3F3D56"/>
<path d="M27.3365 47.1612C26.9199 45.9644 26.2472 44.8729 25.3654 43.9627C24.4836 43.0526 23.4139 42.3457 22.2308 41.8915C21.0478 41.4372 19.7799 41.2465 18.5156 41.3326C17.2512 41.4188 16.0209 41.7796 14.9104 42.3901C13.7998 43.0006 12.8358 43.8459 12.0856 44.8672C11.3353 45.8885 10.8169 47.0612 10.5664 48.3035C10.3159 49.5457 10.3395 50.8277 10.6353 52.0599C10.9312 53.2921 11.4923 54.445 12.2795 55.4381C12.3577 55.5366 12.439 55.6352 12.5219 55.7306C12.5282 55.7368 12.5328 55.7431 12.5391 55.7493C12.743 55.9842 12.9597 56.2077 13.1882 56.4187C13.2476 56.4735 13.3102 56.5298 13.3727 56.583C13.4916 56.6893 13.6136 56.791 13.7403 56.888C13.9877 57.0829 14.2456 57.2641 14.5129 57.4307L14.5223 57.4354C14.6959 57.5433 14.8726 57.6434 15.0525 57.7388L15.126 57.7763C15.2949 57.8639 15.467 57.9468 15.6437 58.0234C15.6797 58.0391 15.7188 58.0547 15.7547 58.0704C15.7579 58.0719 15.7595 58.0719 15.7626 58.0735C16.1197 58.222 16.4865 58.3458 16.8606 58.4442C17.5937 58.6396 18.3493 58.7384 19.108 58.7382C19.3849 58.7382 19.6586 58.7257 19.9291 58.6991C20.5474 58.642 21.1577 58.5188 21.7497 58.3316C21.7513 58.3316 21.7528 58.33 21.7544 58.33C22.1283 58.2109 22.4936 58.0661 22.8477 57.8968C22.8492 57.8952 22.8524 57.8952 22.8539 57.8936C22.9337 57.8561 23.0103 57.8154 23.0885 57.7763L23.1261 57.7576C23.1886 57.7247 23.2512 57.6919 23.3137 57.6575C23.4701 57.5714 23.6234 57.4807 23.7752 57.3837C23.8174 57.3587 23.858 57.3321 23.9003 57.304C24.0379 57.2133 24.174 57.1163 24.3053 57.0178C24.3288 57.0006 24.3538 56.9834 24.3773 56.9646C25.8426 55.8523 26.9181 54.3048 27.4497 52.5437C27.9812 50.7826 27.9416 48.8984 27.3365 47.1612Z" fill="white"/>
<path d="M21.9816 53.6165C22.7028 53.6165 23.2874 53.0319 23.2874 52.3107C23.2874 51.5895 22.7028 51.0049 21.9816 51.0049C21.2604 51.0049 20.6758 51.5895 20.6758 52.3107C20.6758 53.0319 21.2604 53.6165 21.9816 53.6165Z" fill="#2F2E41"/>
<path d="M22.3456 51.041C22.5716 51.041 22.7938 51.0996 22.9903 51.2112C23.1869 51.3228 23.3511 51.4835 23.4669 51.6775C23.5828 51.8716 23.6463 52.0924 23.6512 52.3183C23.6562 52.5443 23.6024 52.7677 23.4952 52.9666C23.6083 52.825 23.6908 52.6613 23.7372 52.486C23.7837 52.3108 23.7931 52.1278 23.7649 51.9486C23.7367 51.7695 23.6715 51.5983 23.5734 51.4458C23.4754 51.2932 23.3467 51.1628 23.1954 51.0628C23.0442 50.9628 22.8738 50.8954 22.6951 50.8648C22.5164 50.8343 22.3332 50.8413 22.1574 50.8855C21.9815 50.9296 21.8168 51.0099 21.6737 51.1212C21.5306 51.2326 21.4122 51.3725 21.3262 51.5321C21.4482 51.3788 21.6033 51.255 21.7799 51.17C21.9564 51.085 22.1497 51.0409 22.3456 51.041Z" fill="#2F2E41"/>
<path d="M19.543 52.3079C21.6615 52.3079 23.3789 50.5905 23.3789 48.4719C23.3789 46.3534 21.6615 44.636 19.543 44.636C17.4244 44.636 15.707 46.3534 15.707 48.4719C15.707 50.5905 17.4244 52.3079 19.543 52.3079Z" fill="#2F2E41"/>
<path d="M16.5317 46.092C17.1927 45.3487 18.1166 44.8912 19.1085 44.8161C20.1003 44.7411 21.0826 45.0543 21.8479 45.6897C21.8166 45.6599 21.7853 45.6298 21.7529 45.6009C20.9952 44.9221 19.9988 44.572 18.983 44.6279C17.9671 44.6837 17.0151 45.1407 16.3362 45.8985C15.6574 46.6562 15.3074 47.6526 15.3632 48.6684C15.419 49.6843 15.8761 50.6363 16.6338 51.3152C16.6411 51.3217 16.6484 51.3282 16.6557 51.3346C16.6883 51.3636 16.7217 51.391 16.7551 51.4186C16.0344 50.733 15.6083 49.7943 15.5666 48.8004C15.525 47.8066 15.8709 46.8355 16.5317 46.092Z" fill="#2F2E41"/>
<path d="M19.5096 52.2753C20.8741 52.2753 21.9802 51.1692 21.9802 49.8048C21.9802 48.4403 20.8741 47.3342 19.5096 47.3342C18.1452 47.3342 17.0391 48.4403 17.0391 49.8048C17.0391 51.1692 18.1452 52.2753 19.5096 52.2753Z" fill="#A0616A"/>
<path d="M23.9314 56.242V57.0709C23.7796 57.1679 23.6264 57.2586 23.47 57.3446C23.4074 57.379 23.3449 57.4119 23.2823 57.4447L23.2448 57.4635C23.1666 57.5026 23.0899 57.5432 23.0102 57.5808C23.0086 57.5823 23.0054 57.5824 23.0039 57.5839C22.6498 57.7533 22.2845 57.898 21.9106 58.0172C21.9091 58.0172 21.9075 58.0187 21.9059 58.0187C21.314 58.206 20.7036 58.3292 20.0854 58.3863C19.8148 58.4129 19.5411 58.4254 19.2643 58.4254C18.5055 58.4256 17.75 58.3267 17.0168 58.1313C16.6428 58.033 16.2759 57.9091 15.9188 57.7606C15.9157 57.7591 15.9141 57.7591 15.911 57.7575C15.875 57.7419 15.8359 57.7262 15.7999 57.7106C15.6232 57.634 15.4512 57.5511 15.2822 57.4635L15.2088 57.426C15.0288 57.3305 14.8521 57.2304 14.6785 57.1225L14.6691 57.1178C14.4018 56.9513 14.1439 56.7701 13.8965 56.5751C13.7698 56.4781 13.6479 56.3765 13.529 56.2701C13.4664 56.2169 13.4039 56.1606 13.3445 56.1059C13.1159 55.8949 12.8992 55.6714 12.6953 55.4365C12.7224 55.2736 12.7621 55.113 12.8142 54.9563L12.8157 54.9548C12.8251 54.9281 12.8361 54.9019 12.8486 54.8766C12.8572 54.8541 12.8671 54.8322 12.8783 54.8109C13.1583 54.2869 13.665 54.1571 14.2938 54.129C14.6488 54.1133 15.0414 54.1305 15.4559 54.1258C15.6748 54.1243 15.9016 54.1164 16.1284 54.0961C17.5595 53.9663 17.2999 53.1217 17.364 52.6666C17.4281 52.2255 17.8254 52.6072 17.852 52.6322L17.8535 52.6337C18.6634 53.0127 19.5593 53.1698 20.4498 53.0889C20.6031 53.0701 20.7564 53.0592 20.9096 53.0545C21.3132 53.0498 21.2256 53.1655 21.0864 53.2609C21.0189 53.3054 20.9483 53.3451 20.8753 53.3798C20.8753 53.3798 20.8111 53.7708 20.7455 54.3557C20.6829 54.9157 21.7558 55.1784 21.8449 55.1988C21.8468 55.2 21.849 55.2005 21.8512 55.2003C22.243 55.0987 22.6555 55.1096 23.0415 55.2316H23.043C23.2635 55.3127 23.4603 55.4476 23.6154 55.624C23.7706 55.8005 23.8792 56.0129 23.9314 56.242Z" fill="#00344D"/>
<path d="M15.9329 57.2476C15.9329 57.3633 15.9298 57.4744 15.9251 57.5792C15.9235 57.6417 15.9204 57.7027 15.9173 57.7606C15.9141 57.759 15.9125 57.759 15.9094 57.7575C15.8734 57.7418 15.8343 57.7262 15.7984 57.7106C15.6216 57.6339 15.4496 57.551 15.2807 57.4634L15.2072 57.4259C15.0273 57.3305 14.8506 57.2304 14.677 57.1225C14.6816 57.0677 14.6895 57.013 14.6973 56.9582C14.7145 56.8378 14.7286 56.7158 14.738 56.5954C14.7995 55.7493 14.6461 54.9014 14.2922 54.1305V54.1289C14.2609 54.0663 14.2422 54.0319 14.2422 54.0319C14.2422 54.0319 14.6973 53.6409 15.3463 54.0319C15.3878 54.0563 15.4244 54.0881 15.4543 54.1258C15.8453 54.5872 15.9516 56.1387 15.9329 57.2476Z" fill="#2F2E41"/>
<path d="M23.0356 57.0349C23.0293 57.2101 23.0199 57.3931 23.009 57.5792V57.5808C23.0074 57.5823 23.0042 57.5823 23.0027 57.5839C22.6487 57.7532 22.2834 57.898 21.9094 58.0171C21.9079 58.0171 21.9064 58.0187 21.9048 58.0187L21.8876 57.5792L21.886 57.5213L21.8031 55.3817C21.8009 55.3333 21.8085 55.2849 21.8255 55.2395C21.8425 55.1941 21.8685 55.1526 21.902 55.1175C21.9355 55.0824 21.9757 55.0545 22.0203 55.0354C22.0648 55.0163 22.1128 55.0064 22.1613 55.0063H22.9542C22.9933 55.0063 23.0215 55.0861 23.0403 55.23V55.2316C23.0787 55.8321 23.0772 56.4346 23.0356 57.0349Z" fill="#2F2E41"/>
<path d="M17.3965 46.7168V49.188H17.9686L18.6967 48.4078L18.5992 49.188H21.1283L20.9719 48.4078L21.2847 49.188H21.6879V46.7168H17.3965Z" fill="#2F2E41"/>
<path d="M17.0075 49.6423C17.1152 49.6423 17.2026 49.4822 17.2026 49.2848C17.2026 49.0873 17.1152 48.9272 17.0075 48.9272C16.8998 48.9272 16.8125 49.0873 16.8125 49.2848C16.8125 49.4822 16.8998 49.6423 17.0075 49.6423Z" fill="#A0616A"/>
<path d="M22.0134 49.6423C22.1211 49.6423 22.2084 49.4822 22.2084 49.2848C22.2084 49.0873 22.1211 48.9272 22.0134 48.9272C21.9057 48.9272 21.8184 49.0873 21.8184 49.2848C21.8184 49.4822 21.9057 49.6423 22.0134 49.6423Z" fill="#A0616A"/>
<path d="M24.4605 56.705C24.3291 56.8035 24.193 56.9005 24.0554 56.9912C24.0132 57.0193 23.9725 57.0459 23.9303 57.071C23.7786 57.1679 23.6253 57.2586 23.4689 57.3447C23.4063 57.3791 23.3438 57.4119 23.2812 57.4448V55.7212C23.2812 55.7212 23.5314 55.9214 23.9303 56.2545C23.9803 56.2968 24.0319 56.3405 24.0867 56.3875C24.2024 56.4844 24.3276 56.5908 24.4605 56.705Z" fill="#00344D"/>
<path d="M27.3365 47.1612C26.9199 45.9644 26.2472 44.8729 25.3654 43.9627C24.4836 43.0526 23.4139 42.3457 22.2308 41.8915C21.0478 41.4372 19.7799 41.2465 18.5156 41.3326C17.2512 41.4188 16.0209 41.7796 14.9104 42.3901C13.7998 43.0006 12.8358 43.8459 12.0856 44.8672C11.3353 45.8885 10.8169 47.0612 10.5664 48.3035C10.3159 49.5457 10.3395 50.8277 10.6353 52.0599C10.9312 53.2921 11.4923 54.445 12.2795 55.4381C12.3577 55.5366 12.439 55.6352 12.5219 55.7306C12.5282 55.7368 12.5328 55.7431 12.5391 55.7493C12.743 55.9842 12.9597 56.2077 13.1882 56.4187C13.2476 56.4735 13.3102 56.5298 13.3727 56.583C13.4916 56.6893 13.6136 56.791 13.7403 56.888C13.9877 57.0829 14.2456 57.2641 14.5129 57.4307L14.5223 57.4354C14.6959 57.5433 14.8726 57.6434 15.0525 57.7388L15.126 57.7763C15.2949 57.8639 15.467 57.9468 15.6437 58.0234C15.6797 58.0391 15.7188 58.0547 15.7547 58.0704C15.7579 58.0719 15.7595 58.0719 15.7626 58.0735C16.1197 58.222 16.4865 58.3458 16.8606 58.4442C17.5937 58.6396 18.3493 58.7384 19.108 58.7382C19.3849 58.7382 19.6586 58.7257 19.9291 58.6991C20.5474 58.642 21.1577 58.5188 21.7497 58.3316C21.7513 58.3316 21.7528 58.33 21.7544 58.33C22.1283 58.2109 22.4936 58.0661 22.8477 57.8968C22.8492 57.8952 22.8524 57.8952 22.8539 57.8936C22.9337 57.8561 23.0103 57.8154 23.0885 57.7763L23.1261 57.7576C23.1886 57.7247 23.2512 57.6919 23.3137 57.6575C23.4701 57.5714 23.6234 57.4807 23.7752 57.3837C23.8174 57.3587 23.858 57.3321 23.9003 57.304C24.0379 57.2133 24.174 57.1163 24.3053 57.0178C24.3288 57.0006 24.3538 56.9834 24.3773 56.9646C25.8426 55.8523 26.9181 54.3048 27.4497 52.5437C27.9812 50.7826 27.9416 48.8984 27.3365 47.1612ZM24.0895 56.5845C24.0379 56.6252 23.9847 56.6643 23.9316 56.7003C23.8799 56.7394 23.8283 56.7769 23.7752 56.8113C23.7298 56.8442 23.6844 56.8754 23.6375 56.9052C23.5984 56.9317 23.5593 56.9568 23.5202 56.9818C23.3904 57.0631 23.2591 57.1413 23.1261 57.2164L23.0838 57.2399C23.0244 57.2727 22.965 57.304 22.9055 57.3353C22.8977 57.34 22.8883 57.3431 22.8805 57.3478L22.8711 57.3525C22.7961 57.3916 22.7194 57.4291 22.6428 57.4651C22.347 57.6075 22.0425 57.7308 21.7309 57.8342C21.6903 57.8483 21.6496 57.8623 21.609 57.8749C21.0487 58.0531 20.4708 58.1705 19.8854 58.2252C19.6289 58.2487 19.3692 58.2612 19.108 58.2612C18.3903 58.2626 17.6756 58.169 16.9825 57.9828C16.6268 57.8899 16.2782 57.7718 15.9393 57.6293C15.9034 57.6152 15.8674 57.5996 15.833 57.5855C15.8142 57.5777 15.797 57.5699 15.7782 57.5605C15.6312 57.4964 15.4858 57.426 15.3434 57.3525L15.2746 57.3165C15.101 57.2258 14.9305 57.1288 14.7647 57.0256C14.7038 56.988 14.6427 56.9489 14.5833 56.9083C14.3956 56.7847 14.2126 56.6518 14.0343 56.5126C13.9139 56.4219 13.7982 56.3249 13.6855 56.2248C13.6261 56.1748 13.5682 56.12 13.5119 56.0684C13.2902 55.8636 13.0803 55.6464 12.8832 55.4178C12.8175 55.3427 12.7534 55.2676 12.6924 55.1894C12.6785 55.1739 12.6654 55.1578 12.6533 55.1409C11.6371 53.8586 11.0258 52.3027 10.8975 50.6715C10.7692 49.0404 11.1296 47.408 11.9328 45.9826C12.736 44.5571 13.9455 43.4032 15.4072 42.668C16.8689 41.9327 18.5164 41.6495 20.1397 41.8544C21.7629 42.0593 23.2884 42.7431 24.5215 43.8185C25.7546 44.8939 26.6395 46.3122 27.0632 47.8925C27.487 49.4728 27.4305 51.1436 26.9008 52.6916C26.3712 54.2397 25.3925 55.595 24.0895 56.5845Z" fill="#3F3D56"/>
<path d="M19.1559 84.1068C21.0413 84.1068 22.5697 82.5784 22.5697 80.693C22.5697 78.8077 21.0413 77.2793 19.1559 77.2793C17.2706 77.2793 15.7422 78.8077 15.7422 80.693C15.7422 82.5784 17.2706 84.1068 19.1559 84.1068Z" fill="#2F2E41"/>
<path d="M16.4913 78.8524C17.0429 78.3008 17.1547 77.5182 16.741 77.1045C16.3272 76.6907 15.5446 76.8025 14.993 77.3542C14.4413 77.9058 14.3295 78.6884 14.7433 79.1022C15.157 79.5159 15.9396 79.4041 16.4913 78.8524Z" fill="#2F2E41"/>
<path d="M22.7135 77.7683C22.9433 77.2303 22.548 76.5456 21.8306 76.2392C21.1132 75.9327 20.3452 76.1205 20.1154 76.6585C19.8855 77.1966 20.2808 77.8812 20.9982 78.1877C21.7157 78.4942 22.4836 78.3064 22.7135 77.7683Z" fill="#2F2E41"/>
<path d="M23.2402 87.3149L22.838 86.682C22.6673 86.3007 22.3525 86.0026 21.9625 85.853C21.5725 85.7034 21.1391 85.7145 20.7573 85.8838C20.3754 86.053 20.0762 86.3667 19.9252 86.7562C19.7741 87.1456 19.7836 87.5791 19.9515 87.9615L20.0659 88.3716L20.196 88.8369C20.723 88.7704 21.2429 88.6569 21.7496 88.4978C21.7511 88.4976 21.7525 88.4969 21.7536 88.4958C22.1281 88.3773 22.4938 88.2324 22.8479 88.0621C22.8498 88.0601 22.8517 88.0601 22.8537 88.0581C22.9326 88.0207 23.0095 87.9813 23.0884 87.9418C23.1012 87.936 23.1137 87.9294 23.1258 87.9221C23.1889 87.8906 23.252 87.857 23.3131 87.8235C23.3762 87.79 23.4373 87.7545 23.4964 87.7171L23.2402 87.3149Z" fill="#CACACA"/>
<path d="M19.2644 84.4053C20.8645 84.4053 22.1616 83.1081 22.1616 81.508C22.1616 79.908 20.8645 78.6108 19.2644 78.6108C17.6643 78.6108 16.3672 79.908 16.3672 81.508C16.3672 83.1081 17.6643 84.4053 19.2644 84.4053Z" fill="#FFB6B6"/>
<path d="M23.4488 87.1906C23.1292 86.6591 22.7325 86.1781 22.2717 85.7631C21.9561 85.4811 21.5476 85.3253 21.1243 85.3254H17.043C16.8079 85.3254 16.5752 85.3735 16.3593 85.4669C16.1435 85.5603 15.9491 85.6969 15.7882 85.8684C15.6272 86.0398 15.5032 86.2425 15.4236 86.4638C15.3441 86.6851 15.3108 86.9204 15.3258 87.1551C15.3347 87.2875 15.3585 87.4184 15.3968 87.5455C15.4259 87.6375 15.4621 87.7272 15.5052 87.8136L15.7063 88.2158C15.7221 88.2217 15.7379 88.2296 15.7536 88.2355C15.7575 88.2375 15.7595 88.2375 15.7615 88.2395C15.8443 88.273 15.9271 88.3065 16.0119 88.338C16.2893 88.4441 16.5723 88.5349 16.8597 88.6101C17.3223 88.7343 17.7945 88.8194 18.2713 88.8645C18.5493 88.8901 18.8274 88.9039 19.1073 88.9039C19.3853 88.9039 19.6574 88.8901 19.9295 88.8645C20.0182 88.8566 20.1069 88.8467 20.1956 88.8369C20.7226 88.7703 21.2425 88.6569 21.7492 88.4978C21.7507 88.4976 21.7521 88.4969 21.7532 88.4958C22.1277 88.3772 22.4934 88.2323 22.8475 88.062C22.8494 88.0601 22.8513 88.06 22.8534 88.0581C22.9322 88.0206 23.0091 87.9812 23.088 87.9418C23.1008 87.936 23.1133 87.9294 23.1254 87.922C23.1885 87.8905 23.2516 87.857 23.3127 87.8235C23.3758 87.7899 23.4369 87.7544 23.496 87.717C23.5592 87.6835 23.6183 87.646 23.6794 87.6086C23.6046 87.4607 23.5277 87.3227 23.4488 87.1906Z" fill="#CACACA"/>
<path d="M17.7829 85.8539C17.4052 85.6772 16.973 85.6573 16.5806 85.7984C16.1883 85.9396 15.8678 86.2303 15.6892 86.6071L15.3263 87.1552L15.1528 87.4174L14.8887 87.8157C14.9438 87.8452 14.9971 87.8748 15.0523 87.9044L15.1252 87.9418C15.2948 88.0286 15.4663 88.1114 15.6438 88.1883C15.6635 88.1981 15.6852 88.206 15.7069 88.2159C15.7227 88.2218 15.7384 88.2297 15.7541 88.2356C15.7581 88.2376 15.7601 88.2376 15.762 88.2396C15.8448 88.2731 15.9277 88.3066 16.0124 88.3381C16.2899 88.4442 16.5729 88.535 16.8603 88.6102C17.3228 88.7344 17.795 88.8195 18.2719 88.8645L18.4099 88.3973L18.544 87.9517C18.7208 87.5725 18.7399 87.1387 18.5972 86.7454C18.4545 86.3522 18.1617 86.0316 17.7829 85.8539Z" fill="#CACACA"/>
<path d="M16.2207 79.6857C16.8828 80.142 17.6686 80.3849 18.4726 80.3817C18.1858 80.5805 17.8593 80.7149 17.5156 80.7754C18.5846 81.0047 19.6895 81.0109 20.7611 80.7936C20.9993 80.7555 21.2291 80.6765 21.4405 80.5603C21.5458 80.5015 21.6376 80.4211 21.7099 80.3245C21.7821 80.2279 21.8332 80.1171 21.8599 79.9994C21.9311 79.5926 21.6141 79.2231 21.2847 78.974C20.7804 78.5985 20.1988 78.3397 19.5822 78.2165C18.9656 78.0933 18.3294 78.1087 17.7194 78.2616C17.313 78.3433 16.9432 78.5523 16.6635 78.8583C16.5282 79.014 16.4465 79.2091 16.4305 79.4147C16.4145 79.6204 16.465 79.8258 16.5747 80.0005L16.2207 79.6857Z" fill="#2F2E41"/>
<path d="M27.3371 77.3267C26.9205 76.1297 26.2479 75.0381 25.3661 74.1278C24.4843 73.2175 23.4146 72.5106 22.2315 72.0562C21.0484 71.6019 19.7804 71.4111 18.516 71.4972C17.2515 71.5833 16.0211 71.9441 14.9105 72.5546C13.7999 73.1651 12.8358 74.0106 12.0855 75.0319C11.3352 76.0533 10.8168 77.2261 10.5664 78.4685C10.3159 79.7108 10.3395 80.9929 10.6355 82.2252C10.9314 83.4575 11.4927 84.6104 12.28 85.6035C12.3568 85.7021 12.4397 85.8006 12.5225 85.8953C12.5273 85.9023 12.5325 85.9088 12.5383 85.915C12.7425 86.1498 12.9597 86.3729 13.1889 86.5834C13.248 86.6386 13.3091 86.6957 13.3723 86.749C13.4905 86.8554 13.6128 86.956 13.7409 87.0526C13.7902 87.092 13.8395 87.1315 13.8908 87.1689C14.0899 87.3207 14.2989 87.4607 14.5118 87.5968C14.5155 87.5968 14.519 87.5982 14.5217 87.6007C14.5828 87.6382 14.6459 87.6756 14.709 87.7111C14.7681 87.7466 14.8292 87.7821 14.8884 87.8156C14.9436 87.8452 14.9968 87.8748 15.0521 87.9043L15.125 87.9418C15.2946 88.0285 15.4661 88.1114 15.6436 88.1882C15.6632 88.1981 15.685 88.206 15.7066 88.2158C15.7224 88.2218 15.7382 88.2296 15.7539 88.2356C15.7578 88.2375 15.7599 88.2375 15.7618 88.2395C15.8446 88.273 15.9275 88.3065 16.0122 88.3381C16.2896 88.4442 16.5727 88.535 16.86 88.6102C17.3226 88.7344 17.7948 88.8194 18.2716 88.8645C18.5497 88.8901 18.8277 88.9039 19.1076 88.9039C19.3857 88.9039 19.6577 88.8901 19.9298 88.8645C20.0185 88.8566 20.1072 88.8468 20.196 88.8369C20.7229 88.7704 21.2428 88.6569 21.7496 88.4978C21.7511 88.4976 21.7524 88.4969 21.7535 88.4958C22.1281 88.3773 22.4937 88.2323 22.8478 88.0621C22.8497 88.0601 22.8517 88.0601 22.8537 88.0581C22.9325 88.0207 23.0094 87.9812 23.0883 87.9418C23.1012 87.936 23.1137 87.9294 23.1257 87.9221C23.1888 87.8905 23.2519 87.857 23.3131 87.8235C23.3761 87.79 23.4372 87.7545 23.4964 87.717C23.5595 87.6835 23.6186 87.6461 23.6798 87.6086C23.7113 87.5889 23.7429 87.5692 23.7744 87.5494C23.8178 87.5238 23.8572 87.4982 23.9006 87.4686C23.9597 87.4311 24.0189 87.3897 24.076 87.3483C24.1529 87.2951 24.2299 87.2399 24.3048 87.1827C24.33 87.1663 24.3544 87.1485 24.3777 87.1295C25.8419 86.0165 26.9166 84.469 27.4481 82.7083C27.9796 80.9476 27.9408 79.064 27.3371 77.3267ZM24.0899 86.749C24.0386 86.7904 23.9853 86.8298 23.9322 86.8653C23.8789 86.9047 23.8276 86.9422 23.7744 86.9777C23.7291 87.0092 23.6837 87.0408 23.6365 87.0703C23.6322 87.0741 23.6275 87.0774 23.6226 87.0802C23.5891 87.1039 23.5536 87.1256 23.5201 87.1472C23.4964 87.161 23.4728 87.1768 23.4491 87.1906C23.3801 87.234 23.3111 87.2754 23.2401 87.3148C23.2027 87.3385 23.1632 87.3602 23.1257 87.3819C23.112 87.3898 23.0981 87.3976 23.0843 87.4055C23.0232 87.439 22.9641 87.4686 22.9049 87.5002C22.8971 87.5061 22.8872 87.508 22.8813 87.514C22.8776 87.514 22.8741 87.5154 22.8714 87.5179C22.7965 87.5573 22.7196 87.5948 22.6428 87.6303C22.3467 87.7728 22.0418 87.8959 21.7298 87.999C21.6905 88.0128 21.6491 88.0286 21.6096 88.0404C21.1068 88.1999 20.5898 88.3108 20.0658 88.3716C20.0067 88.3795 19.9456 88.3854 19.8844 88.3913C19.6282 88.415 19.3699 88.4268 19.1076 88.4268C18.875 88.4268 18.6403 88.417 18.4097 88.3972C17.9275 88.3571 17.4498 88.2739 16.9823 88.1488C16.6265 88.0561 16.2779 87.9375 15.9393 87.7939C15.9215 87.786 15.9038 87.7801 15.8861 87.7722C15.8664 87.7644 15.8506 87.7584 15.8329 87.7506C15.8131 87.7427 15.7973 87.7348 15.7776 87.7249C15.6495 87.6697 15.5213 87.6086 15.3971 87.5455C15.3793 87.5357 15.3616 87.5278 15.3439 87.5179L15.2749 87.4824C15.2335 87.4607 15.1921 87.439 15.1526 87.4174C15.0205 87.3464 14.8904 87.2695 14.7643 87.1906C14.7169 87.1611 14.6657 87.1295 14.6183 87.098L14.5828 87.0743C14.4724 86.9994 14.3621 86.9245 14.2536 86.8436C14.1806 86.7884 14.1057 86.7352 14.0347 86.678C13.9145 86.5873 13.7981 86.4907 13.6858 86.3902C13.6266 86.3409 13.5675 86.2857 13.5123 86.2344C13.2903 86.0298 13.0803 85.8126 12.8834 85.5838C12.8183 85.5089 12.7532 85.4339 12.6921 85.3551C12.6783 85.3393 12.6665 85.3235 12.6526 85.3058C11.6362 84.0234 11.0247 82.4672 10.8963 80.8359C10.7678 79.2046 11.1282 77.5719 11.9314 76.1463C12.7346 74.7206 13.9443 73.5664 15.4061 72.831C16.8679 72.0956 18.5156 71.8122 20.1391 72.0171C21.7626 72.222 23.2883 72.9057 24.5217 73.9812C25.755 75.0567 26.64 76.4752 27.0639 78.0557C27.4877 79.6363 27.4312 81.3072 26.9015 82.8555C26.3719 84.4038 25.393 85.7592 24.0899 86.749Z" fill="#3F3D56"/>
<path d="M33.6836 34.7572C30.6497 32.1971 26.9372 30.5741 22.9977 30.0856C19.0582 29.5971 15.0616 30.2641 11.4943 32.0056C7.92704 33.747 4.94281 36.4878 2.90478 39.8943C0.866751 43.3009 -0.137206 47.2264 0.0150775 51.1931C0.167361 55.1598 1.46932 58.9968 3.76252 62.2371C6.05572 65.4774 9.2413 67.9813 12.9316 69.4441C16.6219 70.9069 20.6579 71.2656 24.5483 70.4765C28.4387 69.6873 32.0159 67.7845 34.8446 64.9994L59.9629 86.194C60.3453 86.5154 60.8395 86.6721 61.3373 86.6297C61.835 86.5873 62.2956 86.3493 62.6181 85.9678C62.9406 85.5864 63.0987 85.0926 63.0578 84.5947C63.0168 84.0969 62.7801 83.6356 62.3995 83.312L62.3967 83.3096L37.2785 62.115C40.1964 57.9271 41.4453 52.8005 40.7803 47.7397C40.1153 42.679 37.5844 38.0491 33.6836 34.7572ZM32.0643 60.0741C30.1075 62.3931 27.507 64.0799 24.5915 64.921C21.676 65.762 18.5767 65.7197 15.6853 64.7993C12.7939 63.8789 10.2403 62.1218 8.34756 59.7501C6.4548 57.3785 5.30783 54.4988 5.05167 51.4753C4.79552 48.4518 5.4417 45.4202 6.9085 42.7639C8.3753 40.1077 10.5968 37.946 13.2922 36.5523C15.9875 35.1586 19.0356 34.5954 22.051 34.9341C25.0664 35.2727 27.9137 36.4979 30.2328 38.4547C33.3426 41.0787 35.2826 44.8306 35.6261 48.8851C35.9696 52.9395 34.6884 56.9643 32.0643 60.0741Z" fill="#3F3D56"/>
<path opacity="0.3" d="M10.4456 61.9056C7.50244 59.4219 5.60091 55.9222 5.11862 52.1014C4.63633 48.2806 5.60855 44.4182 7.84224 41.281C7.5489 41.5764 7.26532 41.8858 6.99149 42.2092C5.69221 43.749 4.70893 45.5296 4.09781 47.4494C3.48669 49.3693 3.25969 51.3906 3.42976 53.3982C3.59984 55.4057 4.16367 57.3601 5.08906 59.1498C6.01444 60.9394 7.28326 62.5292 8.82307 63.8285C10.3629 65.1278 12.1435 66.1111 14.0633 66.7222C15.9832 67.3333 18.0045 67.5603 20.0121 67.3903C22.0196 67.2202 23.974 66.6564 25.7637 65.731C27.5533 64.8056 29.1432 63.5368 30.4424 61.997C30.7156 61.6732 30.9729 61.3416 31.2143 61.0022C28.4976 63.7318 24.8538 65.34 21.0063 65.5073C17.1588 65.6747 13.3891 64.389 10.4456 61.9056Z" fill="#717171"/>
<path d="M84.3223 86.9865C84.5185 86.7469 84.6598 86.4673 84.7363 86.1672C84.8127 85.8672 84.8224 85.554 84.7647 85.2498C84.7071 84.9456 84.5834 84.6577 84.4024 84.4064C84.2214 84.1552 83.9876 83.9467 83.7173 83.7956L79.1388 65.0557L75.7988 66.1219L80.7428 84.7339C80.519 85.2048 80.4758 85.7413 80.6213 86.242C80.7667 86.7426 81.0908 87.1724 81.532 87.4501C81.9732 87.7278 82.501 87.8339 83.0153 87.7485C83.5295 87.663 83.9946 87.3919 84.3223 86.9865Z" fill="#FFB6B6"/>
<path d="M81.9564 74.9996L79.5156 77.1052L76.1008 80.049L74.5925 72.3322L74.4348 71.5297L74.3105 70.8929L77.7707 64.8657L80.6552 65.0311L80.8523 65.043L80.8563 65.0865L80.9016 65.4907L81.4931 70.8099L81.5069 70.9383L81.9564 74.9996Z" fill="#3F3D56"/>
<path d="M66.0026 127.38L63.5856 127.38L62.4355 118.057L66.0032 118.057L66.0026 127.38Z" fill="#FFB6B6"/>
<path d="M66.6181 129.723L58.8242 129.723V129.624C58.8243 128.82 59.1439 128.048 59.7128 127.479C60.2817 126.91 61.0533 126.591 61.8578 126.591H61.858L66.6183 126.591L66.6181 129.723Z" fill="#2F2E41"/>
<path d="M91.2389 127.577L88.8219 127.577L87.6719 118.254L91.2395 118.254L91.2389 127.577Z" fill="#FFB6B6"/>
<path d="M91.8544 129.92L84.0605 129.92V129.821C84.0606 129.017 84.3802 128.245 84.9491 127.676C85.518 127.107 86.2896 126.788 87.0941 126.788H87.0944L91.8546 126.788L91.8544 129.92Z" fill="#2F2E41"/>
<path d="M93.1697 123.866L86.6634 124.852L77.1978 92.817L67.1445 125.049L59.8496 124.063L69.3133 86.6025V83.6451L70.5948 79.209L70.4607 78.0083L69.5282 69.6113L69.124 65.9697L69.0978 65.7345C69.0759 65.5371 69.1282 65.3385 69.2445 65.1776C69.3609 65.0166 69.533 64.9047 69.7274 64.8637L72.7636 64.2249H77.7261L80.654 65.0312L80.8551 65.0864L80.9458 65.1121L80.9004 65.4906L80.2143 71.2438L80.1769 71.5592L79.5144 77.1053L79.3685 78.3218C85.0861 82.4622 85.2833 86.6025 85.2833 86.6025L93.1697 123.866Z" fill="#2F2E41"/>
<path d="M74.6452 61.7306C77.3196 61.7306 79.4876 59.5625 79.4876 56.8881C79.4876 54.2137 77.3196 52.0457 74.6452 52.0457C71.9708 52.0457 69.8027 54.2137 69.8027 56.8881C69.8027 59.5625 71.9708 61.7306 74.6452 61.7306Z" fill="#FFB6B6"/>
<path d="M79.7317 77.2092L70.1523 78.4619L70.3313 79.8304L79.9106 78.5777L79.7317 77.2092Z" fill="#3F3D56"/>
<path d="M57.3033 78.8744C57.3949 78.9336 57.4816 79 57.5628 79.0729L67.0376 76.6576L67.684 74.3718L71.2611 74.8964L70.5101 79.0541C70.4494 79.39 70.2814 79.6972 70.0313 79.9294C69.7812 80.1617 69.4625 80.3066 69.1231 80.3424L58.0602 81.5074C57.8799 81.887 57.5883 82.2028 57.2241 82.4126C56.86 82.6225 56.4406 82.7165 56.0217 82.6822C55.6028 82.6479 55.2043 82.4868 54.8792 82.2205C54.5541 81.9542 54.3178 81.5952 54.2017 81.1913C54.0855 80.7874 54.0951 80.3577 54.2292 79.9593C54.3633 79.561 54.6154 79.213 54.9521 78.9614C55.2888 78.7099 55.6941 78.5669 56.1141 78.5513C56.5341 78.5357 56.9489 78.6484 57.3033 78.8744Z" fill="#FFB6B6"/>
<path d="M71.8771 66.098L70.2012 64.8165C69.7481 64.6446 69.1272 65.1329 69.0183 65.6051L66.6523 75.266L71.5814 78.8149L72.2714 77.7305L71.8771 66.098Z" fill="#3F3D56"/>
<g opacity="0.2">
<path d="M81.4934 70.81C81.0751 70.976 80.6487 71.1208 80.2158 71.2437C80.0778 71.2852 79.9359 71.3246 79.7959 71.362C78.8731 71.6181 77.925 71.7715 76.9686 71.8195C76.5569 71.8369 76.1445 71.8257 75.7344 71.7859C75.2941 71.7421 74.8591 71.6562 74.4351 71.5296C74.4213 71.5257 74.4055 71.5217 74.3917 71.5178C73.5101 71.2675 72.7019 70.8083 72.0356 70.1791C71.8867 70.0341 71.7478 69.8793 71.6196 69.7158C71.2515 69.2649 70.9814 68.7421 70.8266 68.181C70.6718 67.6198 70.6357 67.0326 70.7206 66.4567C70.737 66.3523 70.7594 66.249 70.7877 66.1472C70.8619 65.8697 70.9602 65.5992 71.0814 65.3388C71.1346 65.2166 71.1938 65.0963 71.2569 64.978L73.4847 64.2249H77.7276L80.6555 65.0312L80.8527 65.0431L80.8566 65.0864L80.9473 65.1121L80.9019 65.4906L81.4934 70.81Z" fill="#717171"/>
</g>
<path d="M70.9356 52.8791C70.03 52.7681 69.0362 52.8466 68.3303 53.4247C67.6244 54.0028 67.3966 55.2046 68.065 55.8258C68.6566 56.3757 69.5818 56.2464 70.3742 56.4027C71.0569 56.5558 71.6685 56.9334 72.1112 57.4751C72.5538 58.0169 72.8019 58.6915 72.8158 59.391C72.804 61.3969 70.8789 62.916 70.5331 64.892C70.2971 66.2405 70.8658 67.6597 71.8491 68.6123C72.8324 69.5649 74.1841 70.0797 75.546 70.2191C76.908 70.3586 78.2851 70.1456 79.6087 69.7957C80.9378 69.4443 82.2462 68.9458 83.3615 68.1419C84.4767 67.338 85.3909 66.2047 85.7489 64.8774C86.107 63.5501 85.8499 62.0282 84.9272 61.0091C83.8706 59.8421 82.1129 59.4408 81.1989 58.159C80.1744 56.7222 80.5535 54.676 79.7243 53.1182C79.1707 52.0781 78.1225 51.3688 77.0051 50.9951C75.8877 50.6214 74.6946 50.5476 73.5169 50.5114C72.8979 50.4924 72.26 50.486 71.6833 50.7117C71.1066 50.9374 70.5996 51.4517 70.5697 52.0703C70.5398 52.6888 70.9356 52.8791 70.9356 52.8791Z" fill="#2F2E41"/>
<path d="M116.27 130H41.1522C41.0999 130 41.0498 129.979 41.0128 129.942C40.9759 129.905 40.9551 129.855 40.9551 129.803C40.9551 129.751 40.9759 129.7 41.0128 129.663C41.0498 129.626 41.0999 129.606 41.1522 129.606H116.27C116.323 129.606 116.373 129.626 116.41 129.663C116.447 129.7 116.467 129.751 116.467 129.803C116.467 129.855 116.447 129.905 116.41 129.942C116.373 129.979 116.323 130 116.27 130Z" fill="#CACACA"/>
</g>
<defs>
<clipPath id="clip0_1017_8037">
<rect width="116.467" height="130" fill="white"/>
</clipPath>
</defs>
</svg>
