<svg width="26" height="62" viewBox="0 0 26 62" fill="none" xmlns="http://www.w3.org/2000/svg">
<path d="M17.3822 17.3822C17.3822 7.9751 9.75627 0.349174 0.349195 0.349174V25.0022H17.3822V17.3822Z" fill="#5DC8E0" stroke="#5DC8E0" stroke-width="0.695398"/>
<rect width="16.959" height="11.9426" transform="matrix(-1.00437 0 0 1.00437 17.3822 25.0013)" fill="#5DC8E0" stroke="#5DC8E0" stroke-width="0.695398"/>
<path fill-rule="evenodd" clip-rule="evenodd" d="M17.0739 47.8634C17.2767 46.8124 17.3829 45.727 17.3829 44.6168V36.9968H0.349919V61.6498C4.47434 61.6498 8.25637 60.1839 11.2034 57.7447C14.1436 59.7034 18.8581 61.5652 24.554 60.5296C22.9852 59.8572 16.934 55.8231 17.1581 47.7548C17.1312 47.7918 17.1031 47.828 17.0739 47.8634Z" fill="#5DC8E0"/>
<path d="M17.0739 47.8634L17.3432 48.0857L16.731 47.7972L17.0739 47.8634ZM17.3829 36.9968V36.6476H17.7321V36.9968H17.3829ZM0.349919 36.9968H0.000703053V36.6476H0.349919V36.9968ZM0.349919 61.6498V61.999H0.000703053V61.6498H0.349919ZM11.2034 57.7447L10.9808 57.4756L11.1809 57.31L11.397 57.454L11.2034 57.7447ZM24.554 60.5296L24.6916 60.2086L25.758 60.6656L24.6165 60.8731L24.554 60.5296ZM17.1581 47.7548L16.8757 47.5494L17.5385 46.638L17.5072 47.7645L17.1581 47.7548ZM17.7321 44.6168C17.7321 45.7493 17.6238 46.8569 17.4168 47.9296L16.731 47.7972C16.9296 46.7679 17.0337 45.7047 17.0337 44.6168H17.7321ZM17.7321 36.9968V44.6168H17.0337V36.9968H17.7321ZM0.349919 36.6476H17.3829V37.346H0.349919V36.6476ZM0.000703053 61.6498V36.9968H0.699136V61.6498H0.000703053ZM11.4261 58.0137C8.41873 60.5028 4.55859 61.999 0.349919 61.999V61.3006C4.39008 61.3006 8.09401 59.865 10.9808 57.4756L11.4261 58.0137ZM24.6165 60.8731C18.8094 61.929 14.0041 60.03 11.0098 58.0353L11.397 57.454C14.2831 59.3767 18.9069 61.2014 24.4915 60.186L24.6165 60.8731ZM17.5072 47.7645C17.3978 51.7022 18.8178 54.6492 20.4564 56.6975C22.1018 58.7543 23.9607 59.8953 24.6916 60.2086L24.4164 60.8505C23.5785 60.4914 21.6273 59.2792 19.911 57.1338C18.1878 54.9798 16.6943 51.8756 16.809 47.7451L17.5072 47.7645ZM16.8045 47.6411C16.8293 47.6111 16.853 47.5806 16.8757 47.5494L17.4405 47.9602C17.4093 48.0031 17.3769 48.0449 17.3432 48.0857L16.8045 47.6411Z" fill="#5DC8E0"/>
</svg>
