<svg width="36" height="36" viewBox="0 0 36 36" fill="none" xmlns="http://www.w3.org/2000/svg">
<path fill-rule="evenodd" clip-rule="evenodd" d="M12.2928 12.2931C12.4803 12.1056 12.7346 12.0003 12.9998 12.0003C13.265 12.0003 13.5193 12.1056 13.7068 12.2931L17.9998 16.5861L22.2928 12.2931C22.385 12.1976 22.4954 12.1214 22.6174 12.069C22.7394 12.0166 22.8706 11.989 23.0034 11.9878C23.1362 11.9867 23.2678 12.012 23.3907 12.0623C23.5136 12.1125 23.6253 12.1868 23.7192 12.2807C23.8131 12.3746 23.8873 12.4862 23.9376 12.6091C23.9879 12.732 24.0132 12.8637 24.012 12.9965C24.0109 13.1293 23.9833 13.2605 23.9309 13.3825C23.8785 13.5045 23.8023 13.6148 23.7068 13.7071L19.4138 18.0001L23.7068 22.2931C23.8889 22.4817 23.9897 22.7343 23.9875 22.9965C23.9852 23.2587 23.88 23.5095 23.6946 23.6949C23.5092 23.8803 23.2584 23.9855 22.9962 23.9878C22.734 23.99 22.4814 23.8892 22.2928 23.7071L17.9998 19.4141L13.7068 23.7071C13.5182 23.8892 13.2656 23.99 13.0034 23.9878C12.7412 23.9855 12.4904 23.8803 12.305 23.6949C12.1196 23.5095 12.0144 23.2587 12.0121 22.9965C12.0098 22.7343 12.1106 22.4817 12.2928 22.2931L16.5858 18.0001L12.2928 13.7071C12.1053 13.5196 12 13.2652 12 13.0001C12 12.7349 12.1053 12.4806 12.2928 12.2931Z" fill="#717171"/>
</svg>
