<svg width="18" height="18" viewBox="0 0 18 18" fill="none" xmlns="http://www.w3.org/2000/svg">
<path fill-rule="evenodd" clip-rule="evenodd" d="M5.625 3.9375C5.625 3.34076 5.86205 2.76847 6.28401 2.34651C6.70597 1.92455 7.27826 1.6875 7.875 1.6875H10.125C10.7217 1.6875 11.294 1.92455 11.716 2.34651C12.1379 2.76847 12.375 3.34076 12.375 3.9375V4.09125C13.0747 4.155 13.7677 4.239 14.4555 4.34175C15.546 4.50525 16.3125 5.454 16.3125 6.5295V8.80425C16.3125 9.7125 15.762 10.5682 14.8605 10.8682C12.9704 11.4956 10.9915 11.8145 9 11.8125C6.9525 11.8125 4.98225 11.481 3.1395 10.8682C2.238 10.5682 1.6875 9.7125 1.6875 8.80425V6.5295C1.6875 5.454 2.454 4.5045 3.5445 4.34175C4.23547 4.23842 4.92925 4.15488 5.625 4.09125V3.9375ZM11.25 3.9375V4.005C9.75138 3.91399 8.24862 3.91399 6.75 4.005V3.9375C6.75 3.63913 6.86853 3.35298 7.0795 3.142C7.29048 2.93103 7.57663 2.8125 7.875 2.8125H10.125C10.4234 2.8125 10.7095 2.93103 10.9205 3.142C11.1315 3.35298 11.25 3.63913 11.25 3.9375ZM9 10.125C9.14918 10.125 9.29226 10.0657 9.39775 9.96025C9.50324 9.85476 9.5625 9.71168 9.5625 9.5625C9.5625 9.41332 9.50324 9.27024 9.39775 9.16475C9.29226 9.05926 9.14918 9 9 9C8.85082 9 8.70774 9.05926 8.60225 9.16475C8.49676 9.27024 8.4375 9.41332 8.4375 9.5625C8.4375 9.71168 8.49676 9.85476 8.60225 9.96025C8.70774 10.0657 8.85082 10.125 9 10.125Z" fill="white"/>
<path d="M2.25 13.7999V11.7029C2.42086 11.7964 2.59985 11.8742 2.78475 11.9354C4.78927 12.6009 6.88789 12.9392 9 12.9374C11.169 12.9374 13.26 12.5864 15.2153 11.9361C15.4043 11.8731 15.5828 11.7944 15.75 11.7029V13.7999C15.75 14.8889 14.9647 15.8459 13.8577 15.9921C12.2677 16.2036 10.6462 16.3124 9 16.3124C7.37546 16.3127 5.75268 16.2057 4.14225 15.9921C3.03525 15.8459 2.25 14.8889 2.25 13.7999Z" fill="white"/>
</svg>
