<svg width="10" height="8" viewBox="0 0 10 8" fill="none" xmlns="http://www.w3.org/2000/svg">
<path d="M2.65919 1.16152L3.28706 3.09341H5.31838L3.67628 4.28948L4.30414 6.22137L2.65919 5.02814L1.01424 6.22137L1.64495 4.28948L0 3.09341H2.03133L2.65919 1.16152Z" fill="#FFDA44"/>
<path d="M7.30182 8.00005L6.82169 7.40912L6.11143 7.6847L6.52338 7.04547L6.04325 6.4517L6.77908 6.64773L7.19386 6.0085L7.23364 6.76989L7.97231 6.96592L7.25921 7.23866L7.30182 8.00005Z" fill="#FFDA44"/>
<path d="M8.2564 6.26703L8.48368 5.53973L7.8615 5.09937L8.62289 5.08801L8.84733 4.36071L9.0945 5.08233L9.85589 5.0738L9.24507 5.52837L9.4894 6.24999L8.86722 5.80963L8.2564 6.26703Z" fill="#FFDA44"/>
<path d="M9.54257 2.07379L9.20733 2.75848L9.75281 3.28975L8.99994 3.18179L8.6647 3.86363L8.53401 3.1136L7.7783 3.00565L8.45446 2.65052L8.32377 1.89765L8.86925 2.42892L9.54257 2.07379Z" fill="#FFDA44"/>
<path d="M7.32008 0L7.26326 0.758553L7.97068 1.0455L7.22917 1.22732L7.17519 1.98871L6.77461 1.34096L6.0331 1.52279L6.5246 0.940378L6.12117 0.295466L6.82859 0.582409L7.32008 0Z" fill="#FFDA44"/>
</svg>
