<svg width="163" height="130" viewBox="0 0 163 130" fill="none" xmlns="http://www.w3.org/2000/svg">
<path d="M112.457 8.89815C112.21 8.16596 109.1 5.67704 111.005 5.25871L112.568 7.34227L119.752 0.158203L120.475 0.880754L112.457 8.89815Z" fill="white"/>
<path d="M112.457 33.3269C112.21 32.5947 109.1 30.1058 111.005 29.6874L112.568 31.771L119.752 24.5869L120.475 25.3095L112.457 33.3269Z" fill="white"/>
<path d="M112.457 58.1047C112.21 57.3725 109.1 54.8836 111.005 54.4653L112.568 56.5488L119.752 49.3647L120.475 50.0873L112.457 58.1047Z" fill="white"/>
<path d="M105.842 38.0725C107.066 38.0725 108.059 37.0799 108.059 35.8556C108.059 34.6312 107.066 33.6387 105.842 33.6387C104.618 33.6387 103.625 34.6312 103.625 35.8556C103.625 37.0799 104.618 38.0725 105.842 38.0725Z" fill="white"/>
<path d="M105.842 13.9084C107.066 13.9084 108.059 12.9159 108.059 11.6915C108.059 10.4671 107.066 9.47461 105.842 9.47461C104.618 9.47461 103.625 10.4671 103.625 11.6915C103.625 12.9159 104.618 13.9084 105.842 13.9084Z" fill="white"/>
<path d="M162.704 6.59277H127.012V7.03615H162.704V6.59277Z" fill="white"/>
<path d="M106.949 63.8317C108.174 63.8317 109.166 62.8392 109.166 61.6148C109.166 60.3905 108.174 59.3979 106.949 59.3979C105.725 59.3979 104.732 60.3905 104.732 61.6148C104.732 62.8392 105.725 63.8317 106.949 63.8317Z" fill="white"/>
<path d="M162.704 31.0215H127.012V31.4649H162.704V31.0215Z" fill="white"/>
<path d="M162.704 55.7993H127.012V56.2427H162.704V55.7993Z" fill="white"/>
<path d="M118.055 61.408H106.971V50.1018H114.508V50.5452H107.414V60.9646H117.612V55.8657H118.055V61.408Z" fill="white"/>
<path d="M118.055 36.5786H106.971V25.2725H114.508V25.7158H107.414V36.1353H117.612V31.0364H118.055V36.5786Z" fill="white"/>
<path d="M118.055 11.3062H106.971V0H114.508V0.443379H107.414V10.8628H117.612V5.76393H118.055V11.3062Z" fill="white"/>
<path d="M45.6843 40.2968C45.6843 40.2968 42.7218 52.8048 46.3426 52.8048C49.9633 52.8048 58.5214 38.651 58.5214 38.651L55.559 35.0303L50.2418 42.4125L49.9633 38.651L45.6843 40.2968Z" fill="#A0616A"/>
<path d="M57.7316 39.1948C59.3232 39.1948 60.6135 37.9045 60.6135 36.3129C60.6135 34.7212 59.3232 33.4309 57.7316 33.4309C56.1399 33.4309 54.8496 34.7212 54.8496 36.3129C54.8496 37.9045 56.1399 39.1948 57.7316 39.1948Z" fill="#A0616A"/>
<path d="M43.1728 125.487L47.0087 125.487L48.8338 110.69L43.1719 110.69L43.1728 125.487Z" fill="#A0616A"/>
<path d="M43.0373 129.489L54.834 129.488V129.339C54.8339 128.121 54.3502 126.954 53.4891 126.092C52.628 125.231 51.4602 124.748 50.2424 124.748H50.2421L48.0873 123.113L44.0669 124.748L43.0371 124.748L43.0373 129.489Z" fill="#2F2E41"/>
<path d="M1.9082 120.701L5.34062 122.414L13.5813 109.989L8.51522 107.461L1.9082 120.701Z" fill="#A0616A"/>
<path d="M0 124.221L10.5553 129.489L10.622 129.355C11.1657 128.266 11.2543 127.005 10.8684 125.85C10.4825 124.695 9.65359 123.74 8.56404 123.196L8.56379 123.196L7.36578 120.771L3.03835 120.439L2.11694 119.979L0 124.221Z" fill="#2F2E41"/>
<path d="M88.2168 129H0.216797V130H88.2168V129Z" fill="#CCCCCC"/>
<path d="M18.3705 62.9883C18.3705 62.9883 16.8375 81.4215 16.5083 85.3714C16.2826 87.8474 15.7292 90.2825 14.8626 92.6128C14.8626 92.6128 14.2042 93.9295 14.2042 95.2461L6.74331 108.805C6.74331 108.805 4.4634 110.481 4.79255 111.798C5.12171 113.115 3.41797 113.904 3.41797 113.904L11.275 115.419C11.275 115.419 10.9458 114.431 11.9333 114.102C12.9208 113.773 13.7068 110.918 13.7068 110.918L24.7373 92.942L32.6371 76.4841C32.6371 76.4841 37.2453 91.2962 38.2327 92.942C38.2327 92.942 41.8535 111.375 42.5118 113.021C43.1701 114.666 43.4993 114.666 43.1701 115.325C42.8409 115.983 42.8409 116.641 43.1701 116.971C43.4992 117.3 49.7532 116.971 49.7532 116.971L48.1075 93.6003L45.145 65.6219L30.0038 61.0137L18.3705 62.9883Z" fill="#2F2E41"/>
<path d="M33.1955 18.9838C37.0131 18.9838 40.1078 15.8891 40.1078 12.0715C40.1078 8.25393 37.0131 5.15918 33.1955 5.15918C29.378 5.15918 26.2832 8.25393 26.2832 12.0715C26.2832 15.8891 29.378 18.9838 33.1955 18.9838Z" fill="#A0616A"/>
<path d="M45.804 29.0851L37.5753 24.0997C37.5753 24.0997 37.3473 21.0038 35.0027 20.8581C33.8256 20.785 32.0592 20.6732 29.4085 20.5023C28.8483 20.4662 28.4702 23.531 27.8282 23.4895L19.1422 25.7936L20.4589 48.1763C20.4589 48.1763 18.4839 57.0635 19.1422 58.7093C19.8006 60.3551 17.4965 61.0134 18.1548 61.3426C18.8131 61.6718 18.1548 63.9759 18.1548 63.9759C18.1548 63.9759 30.9919 70.559 45.1457 65.6216L43.8291 61.3426C44.0082 60.7832 44.0418 60.1874 43.9266 59.6115C43.8115 59.0355 43.5513 58.4984 43.1707 58.051C43.1707 58.051 44.4874 56.0761 42.8416 54.4303C42.8416 54.4303 43.4999 51.4679 41.8541 50.1512L41.5249 45.543L42.5124 43.2389L45.804 29.0851Z" fill="#E6E6E6"/>
<path d="M27.1977 16.0203L27.0045 15.5715C26.9796 15.5135 24.5351 9.73459 26.7018 6.17003C27.7049 4.5198 29.5287 3.58812 32.1225 3.40107C36.181 3.10761 38.9587 4.07035 40.3807 6.26052C40.6191 6.63171 40.7531 7.06028 40.7686 7.50117C40.7841 7.94207 40.6805 8.37899 40.4688 8.76601C40.257 9.15303 39.9449 9.47585 39.5652 9.70052C39.1856 9.92519 38.7524 10.0434 38.3112 10.0428H38.2567L37.5109 9.0745L37.4675 9.16867C37.1976 9.75277 36.5775 10.0725 35.8513 10.0025C35.7278 9.99363 35.6184 10.1002 35.5305 10.3284C35.5009 10.4283 35.445 10.5183 35.3686 10.589C35.2923 10.6598 35.1983 10.7087 35.0965 10.7306C34.5599 10.835 33.795 10.1591 33.4527 9.82228C33.4395 9.89981 33.4098 9.9736 33.3656 10.0387C33.3214 10.1037 33.2638 10.1585 33.1966 10.1994C32.8358 10.4076 32.2743 10.1357 32.1131 10.0491C30.8292 10.3218 29.9981 10.2489 29.6421 9.83245C29.4007 11.5403 28.8826 14.6143 28.2614 14.7846C28.1964 14.7996 28.1284 14.7932 28.0674 14.7665C28.0063 14.7399 27.9555 14.6942 27.9223 14.6364C27.7727 14.4422 27.6391 14.3455 27.5556 14.3727C27.3535 14.4369 27.2342 15.1025 27.2171 15.532L27.1977 16.0203Z" fill="#2F2E41"/>
<path d="M42.1831 29.4143L45.4667 28.8809C47.8319 31.1535 49.4432 34.097 50.0829 37.3141C51.0704 42.5806 51.3995 43.5681 51.3995 43.5681L43.4998 45.543L39.2207 37.3141L42.1831 29.4143Z" fill="#E6E6E6"/>
<path d="M27.6131 36.2645L25.584 61.988L77.3673 66.0729L79.3965 40.3493L27.6131 36.2645Z" fill="white"/>
<path d="M33.1451 38.2576C31.8779 37.3526 30.2689 37.2872 29.6543 37.3002C29.8418 37.8855 30.4245 39.3866 31.6918 40.292C32.9621 41.1992 34.569 41.2627 35.1827 41.25C34.9953 40.6649 34.4125 39.1632 33.1451 38.2576Z" fill="#00344D"/>
<path d="M38.1438 54.6261L29.8289 53.9702C29.5833 53.9508 29.3362 53.98 29.1018 54.0561C28.8674 54.1322 28.6502 54.2537 28.4628 54.4138C28.2754 54.5738 28.1213 54.7692 28.0094 54.9887C27.8975 55.2083 27.8299 55.4478 27.8105 55.6934C27.7911 55.9391 27.8203 56.1862 27.8964 56.4206C27.9725 56.655 28.0941 56.8721 28.2541 57.0596C28.4141 57.247 28.6095 57.4011 28.8291 57.513C29.0486 57.6249 29.2881 57.6925 29.5338 57.7119L37.8487 58.3678C38.3449 58.4069 38.8363 58.2474 39.2148 57.9242C39.5933 57.601 39.828 57.1407 39.8671 56.6445C39.9063 56.1483 39.7467 55.6569 39.4235 55.2784C39.1003 54.8999 38.64 54.6652 38.1438 54.6261Z" fill="#00344D"/>
<g filter="url(#filter0_d_1017_8183)">
<path d="M77.3555 37.8491L30.7364 34.1712C30.1941 34.1285 29.6488 34.1931 29.1315 34.3611C28.6142 34.5292 28.135 34.7975 27.7214 35.1507C27.3078 35.504 26.9679 35.9352 26.7209 36.4198C26.474 36.9045 26.3249 37.433 26.2822 37.9752L24.4893 60.6875C24.4032 61.7829 24.7555 62.8677 25.469 63.7033C26.1824 64.539 27.1985 65.0571 28.2939 65.1438L74.913 68.8216C75.4552 68.8643 76.0006 68.7998 76.5179 68.6317C77.0352 68.4637 77.5143 68.1954 77.9279 67.8421C78.3415 67.4889 78.6815 67.0576 78.9284 66.573C79.1754 66.0884 79.3244 65.5599 79.3671 65.0176L81.0709 43.4305L81.1052 42.9895L81.1595 42.3032C81.2022 41.7609 81.1376 41.2156 80.9696 40.6983C80.8015 40.181 80.5332 39.7019 80.18 39.2883C79.8267 38.8747 79.3955 38.5347 78.9109 38.2877C78.4262 38.0408 77.8977 37.8917 77.3555 37.8491ZM75.9788 57.61L75.6834 61.3518C75.6294 62.0127 75.316 62.6253 74.8116 63.0557C74.3072 63.4861 73.6529 63.6993 72.9918 63.6487L66.7549 63.1573C66.094 63.1033 65.4814 62.7898 65.051 62.2854C64.6206 61.781 64.4074 61.1267 64.458 60.4656L64.7534 56.7238C64.8076 56.063 65.1212 55.4505 65.6255 55.0202C66.1298 54.5898 66.784 54.3765 67.4451 54.4269L73.6798 54.9189C74.3407 54.9731 74.9533 55.2865 75.384 55.7906C75.8147 56.2948 76.0285 56.9488 75.9788 57.61ZM27.3992 55.6589C27.4476 55.0534 27.7342 54.4918 28.1961 54.0974C28.658 53.7029 29.2575 53.5078 29.8631 53.5548L38.1777 54.2112C38.4781 54.2344 38.7709 54.3165 39.0395 54.4529C39.3081 54.5893 39.5472 54.7774 39.7431 55.0062C39.939 55.2351 40.0879 55.5003 40.1812 55.7867C40.2745 56.0731 40.3105 56.3752 40.2871 56.6755C40.2637 56.9758 40.1813 57.2686 40.0446 57.5371C39.908 57.8056 39.7198 58.0445 39.4908 58.2402C39.2618 58.4359 38.9964 58.5846 38.7099 58.6777C38.4234 58.7708 38.1214 58.8065 37.8211 58.7829L37.8168 58.784L29.5022 58.1276C29.2019 58.1039 28.9092 58.0212 28.641 57.8842C28.3727 57.7472 28.134 57.5587 27.9387 57.3294C27.7434 57.1001 27.5952 56.8345 27.5026 56.5479C27.41 56.2612 27.3749 55.9591 27.3992 55.6589ZM29.1792 37.1518L29.1224 36.9193L29.3616 36.8973C29.4551 36.8873 31.6668 36.6887 33.3885 37.9186C35.1102 39.1484 35.6382 41.3062 35.6611 41.3964L35.7158 41.6295L35.4772 41.6536C35.1384 41.6788 34.7982 41.6765 34.4598 41.6469C33.3835 41.5839 32.3438 41.2328 31.4496 40.6302C29.728 39.4004 29.2 37.2426 29.1792 37.1518Z" fill="#00344D"/>
</g>
<path d="M68.9843 60.0916L66.282 59.8784C66.0892 59.8635 65.8985 59.9258 65.7515 60.0514C65.6046 60.1771 65.5136 60.3559 65.4984 60.5486C65.4832 60.7414 65.545 60.9323 65.6704 61.0794C65.7958 61.2266 65.9745 61.3179 66.1672 61.3335L68.8695 61.5467C69.0623 61.5615 69.2531 61.4993 69.4 61.3736C69.547 61.248 69.638 61.0691 69.6532 60.8764C69.6684 60.6837 69.6065 60.4928 69.4811 60.3456C69.3557 60.1985 69.177 60.1071 68.9843 60.0916Z" fill="#00344D"/>
<path d="M73.9721 60.4851L71.2698 60.2719C71.0771 60.2572 70.8864 60.3195 70.7396 60.4451C70.5928 60.5708 70.5018 60.7496 70.4866 60.9422C70.4714 61.1349 70.5333 61.3257 70.6586 61.4728C70.7839 61.6199 70.9624 61.7113 71.155 61.727L73.8574 61.9402C74.05 61.9549 74.2407 61.8926 74.3875 61.7669C74.5343 61.6413 74.6253 61.4625 74.6405 61.2699C74.6557 61.0772 74.5939 60.8864 74.4686 60.7393C74.3433 60.5922 74.1648 60.5007 73.9721 60.4851Z" fill="#00344D"/>
<path d="M69.1303 58.2207L66.428 58.0075C66.2353 57.9928 66.0447 58.0551 65.8978 58.1807C65.751 58.3064 65.66 58.4851 65.6448 58.6778C65.6296 58.8704 65.6915 59.0613 65.8168 59.2084C65.9421 59.3555 66.1206 59.4469 66.3132 59.4626L69.0156 59.6758C69.2083 59.6906 69.3991 59.6284 69.546 59.5027C69.693 59.3771 69.784 59.1983 69.7992 59.0055C69.8144 58.8128 69.7525 58.6219 69.6271 58.4747C69.5017 58.3276 69.323 58.2362 69.1303 58.2207Z" fill="#00344D"/>
<path d="M74.1211 58.6143L71.4187 58.4011C71.226 58.3862 71.0352 58.4485 70.8883 58.5741C70.7413 58.6998 70.6503 58.8786 70.6351 59.0713C70.6199 59.2641 70.6818 59.455 70.8072 59.6021C70.9326 59.7493 71.1112 59.8406 71.3039 59.8562L74.0063 60.0694C74.1991 60.0842 74.3898 60.022 74.5368 59.8963C74.6837 59.7707 74.7748 59.5918 74.79 59.3991C74.8052 59.2064 74.7433 59.0155 74.6179 58.8683C74.4925 58.7212 74.3138 58.6298 74.1211 58.6143Z" fill="#00344D"/>
<path d="M69.2793 56.3499L66.577 56.1367C66.3842 56.1218 66.1934 56.184 66.0465 56.3097C65.8995 56.4354 65.8085 56.6142 65.7933 56.8069C65.7781 56.9997 65.84 57.1906 65.9654 57.3377C66.0908 57.4849 66.2695 57.5763 66.4622 57.5918L69.1645 57.805C69.3572 57.8197 69.5479 57.7574 69.6947 57.6317C69.8415 57.5061 69.9325 57.3273 69.9477 57.1347C69.9629 56.942 69.901 56.7512 69.7757 56.6041C69.6504 56.457 69.4719 56.3655 69.2793 56.3499Z" fill="#00344D"/>
<path d="M74.2671 56.7434L71.5647 56.5302C71.372 56.5155 71.1814 56.5778 71.0346 56.7034C70.8877 56.8291 70.7968 57.0079 70.7816 57.2005C70.7664 57.3932 70.8282 57.584 70.9535 57.7311C71.0788 57.8782 71.2573 57.9696 71.4499 57.9853L74.1523 58.1985C74.345 58.2132 74.5356 58.1509 74.6825 58.0252C74.8293 57.8996 74.9203 57.7208 74.9355 57.5282C74.9506 57.3355 74.8888 57.1447 74.7635 56.9976C74.6382 56.8505 74.4597 56.759 74.2671 56.7434Z" fill="#00344D"/>
<path d="M25.5894 45.1416L25.5547 45.5837L80.2793 49.8826L80.3141 49.4404L25.5894 45.1416Z" fill="white"/>
<path d="M81.1039 42.9894L81.0695 43.4306L79.165 43.2812L58.873 41.6872L58.9096 41.2456L79.1993 42.84L81.1039 42.9894Z" fill="white"/>
<path d="M14.2038 38.3017C14.2038 38.3017 11.2414 50.8097 14.8621 50.8097C18.4828 50.8097 27.0409 36.6559 27.0409 36.6559L24.0785 33.0352L18.7613 40.4174L18.4828 36.6559L14.2038 38.3017Z" fill="#A0616A"/>
<path d="M26.2531 37.1995C27.8447 37.1995 29.135 35.9092 29.135 34.3175C29.135 32.7258 27.8447 31.4355 26.2531 31.4355C24.6614 31.4355 23.3711 32.7258 23.3711 34.3175C23.3711 35.9092 24.6614 37.1995 26.2531 37.1995Z" fill="#A0616A"/>
<path d="M21.5395 27.7686L19.5645 25.7937C19.5645 25.7937 15.6146 28.0978 15.2855 30.4019C14.9563 32.706 13.3105 39.9475 13.3105 39.9475L19.4 40.4412L21.3749 37.4788L21.5395 27.7686Z" fill="#E6E6E6"/>
<defs>
<filter id="filter0_d_1017_8183" x="21.4766" y="31.1584" width="62.6953" height="40.676" filterUnits="userSpaceOnUse" color-interpolation-filters="sRGB">
<feFlood flood-opacity="0" result="BackgroundImageFix"/>
<feColorMatrix in="SourceAlpha" type="matrix" values="0 0 0 0 0 0 0 0 0 0 0 0 0 0 0 0 0 0 127 0" result="hardAlpha"/>
<feOffset/>
<feGaussianBlur stdDeviation="1.5"/>
<feComposite in2="hardAlpha" operator="out"/>
<feColorMatrix type="matrix" values="0 0 0 0 0 0 0 0 0 0 0 0 0 0 0 0 0 0 0.25 0"/>
<feBlend mode="normal" in2="BackgroundImageFix" result="effect1_dropShadow_1017_8183"/>
<feBlend mode="normal" in="SourceGraphic" in2="effect1_dropShadow_1017_8183" result="shape"/>
</filter>
</defs>
</svg>
