<svg width="95" height="90" viewBox="0 0 95 90" fill="none" xmlns="http://www.w3.org/2000/svg">
<circle cx="45" cy="45" r="45" fill="#EFEFEF"/>
<path fill-rule="evenodd" clip-rule="evenodd" d="M39.3759 37.5C39.3759 36.0082 39.9685 34.5774 41.0234 33.5225C42.0783 32.4676 43.509 31.875 45.0009 31.875C46.4927 31.875 47.9234 32.4676 48.9783 33.5225C50.0332 34.5774 50.6259 36.0082 50.6259 37.5C50.6259 38.9918 50.0332 40.4226 48.9783 41.4775C47.9234 42.5324 46.4927 43.125 45.0009 43.125C43.509 43.125 42.0783 42.5324 41.0234 41.4775C39.9685 40.4226 39.3759 38.9918 39.3759 37.5ZM34.6896 55.1312C34.7318 52.4243 35.8367 49.8426 37.7658 47.9432C39.695 46.0439 42.2936 44.9793 45.0009 44.9793C47.7081 44.9793 50.3068 46.0439 52.2359 47.9432C54.1651 49.8426 55.27 52.4243 55.3121 55.1312C55.3154 55.3135 55.2654 55.4927 55.1684 55.647C55.0714 55.8013 54.9315 55.924 54.7659 56C51.7023 57.4046 48.3711 58.1296 45.0009 58.125C41.5184 58.125 38.2096 57.365 35.2359 56C35.0702 55.924 34.9303 55.8013 34.8333 55.647C34.7363 55.4927 34.6864 55.3135 34.6896 55.1312Z" fill="#94989C"/>
<rect x="69" y="8" width="26" height="26" rx="13" fill="#5DC8E0"/>
<g clip-path="url(#clip0_1005_25376)">
<path d="M87.6766 15.3234C87.3894 15.0363 87 14.875 86.5939 14.875C86.1878 14.875 85.7984 15.0363 85.5112 15.3234L84.8363 15.9983L87.0016 18.1637L87.6766 17.4887C87.9637 17.2016 88.125 16.8121 88.125 16.4061C88.125 16 87.9637 15.6106 87.6766 15.3234ZM86.3827 18.7826L84.2174 16.6172L77.1299 23.7047C76.7699 24.0646 76.5053 24.5084 76.3599 24.9962L75.8932 26.5625C75.8707 26.6381 75.869 26.7183 75.8884 26.7948C75.9077 26.8713 75.9474 26.9411 76.0031 26.9968C76.0589 27.0526 76.1287 27.0923 76.2052 27.1116C76.2816 27.1309 76.3619 27.1293 76.4375 27.1067L78.0037 26.6401C78.4915 26.4947 78.9354 26.2301 79.2952 25.8701L86.3827 18.7826Z" fill="white"/>
</g>
<defs>
<clipPath id="clip0_1005_25376">
<rect width="14" height="14" fill="white" transform="translate(75 14)"/>
</clipPath>
</defs>
</svg>
