<svg width="61" height="26" viewBox="0 0 61 26" fill="none" xmlns="http://www.w3.org/2000/svg">
<path d="M16.9369 5.28755C17.9398 5.40132 18.6755 6.2448 18.6755 7.22961V21L11.8378 17.6669L5 21V7.22961C5 6.2448 5.73483 5.40132 6.73861 5.28755C10.1267 4.90415 13.5489 4.90415 16.9369 5.28755Z" stroke="#EFEFEF" stroke-width="2" stroke-linecap="round" stroke-linejoin="round"/>
<path d="M38.6758 19C38.3925 19 38.1548 18.904 37.9628 18.712C37.7708 18.52 37.6751 18.2827 37.6758 18C37.6758 17.7167 37.7718 17.479 37.9638 17.287C38.1558 17.095 38.3931 16.9993 38.6758 17H49.6758C49.9591 17 50.1968 17.096 50.3888 17.288C50.5808 17.48 50.6765 17.7173 50.6758 18C50.6758 18.2833 50.5798 18.521 50.3878 18.713C50.1958 18.905 49.9585 19.0007 49.6758 19H38.6758ZM38.6758 14C38.3925 14 38.1548 13.904 37.9628 13.712C37.7708 13.52 37.6751 13.2827 37.6758 13C37.6758 12.7167 37.7718 12.479 37.9638 12.287C38.1558 12.095 38.3931 11.9993 38.6758 12H46.6758C46.9591 12 47.1968 12.096 47.3888 12.288C47.5808 12.48 47.6765 12.7173 47.6758 13C47.6758 13.2833 47.5798 13.521 47.3878 13.713C47.1958 13.905 46.9585 14.0007 46.6758 14H38.6758ZM38.6758 9C38.3925 9 38.1548 8.904 37.9628 8.712C37.7708 8.52 37.6751 8.28267 37.6758 8C37.6758 7.71667 37.7718 7.479 37.9638 7.287C38.1558 7.095 38.3931 6.99934 38.6758 7H49.6758C49.9591 7 50.1968 7.096 50.3888 7.288C50.5808 7.48 50.6765 7.71734 50.6758 8C50.6758 8.28334 50.5798 8.521 50.3878 8.713C50.1958 8.905 49.9585 9.00067 49.6758 9H38.6758ZM52.0758 13L54.9758 15.9C55.1591 16.0833 55.2508 16.3167 55.2508 16.6C55.2508 16.8833 55.1591 17.1167 54.9758 17.3C54.7925 17.4833 54.5591 17.575 54.2758 17.575C53.9925 17.575 53.7591 17.4833 53.5758 17.3L49.9758 13.7C49.7758 13.5 49.6758 13.2667 49.6758 13C49.6758 12.7333 49.7758 12.5 49.9758 12.3L53.5758 8.7C53.7591 8.51667 53.9925 8.425 54.2758 8.425C54.5591 8.425 54.7925 8.51667 54.9758 8.7C55.1591 8.88334 55.2508 9.11667 55.2508 9.4C55.2508 9.68334 55.1591 9.91667 54.9758 10.1L52.0758 13Z" fill="#EFEFEF"/>
</svg>
