<svg width="24" height="24" viewBox="0 0 24 24" fill="none" xmlns="http://www.w3.org/2000/svg">
<path d="M11.25 16.5C11.0375 16.5 10.8592 16.428 10.7152 16.284C10.5712 16.14 10.4995 15.962 10.5 15.75C10.5 15.5375 10.572 15.3592 10.716 15.2152C10.86 15.0712 11.038 14.9995 11.25 15H12.75C12.9625 15 13.1407 15.072 13.2847 15.216C13.4287 15.36 13.5005 15.538 13.5 15.75C13.5 15.9625 13.428 16.1407 13.284 16.2847C13.14 16.4287 12.962 16.5005 12.75 16.5H11.25ZM6 9C5.7875 9 5.60925 8.928 5.46525 8.784C5.32125 8.64 5.2495 8.462 5.25 8.25C5.25 8.0375 5.322 7.85925 5.466 7.71525C5.61 7.57125 5.788 7.4995 6 7.5H18C18.2125 7.5 18.3907 7.572 18.5347 7.716C18.6787 7.86 18.7505 8.038 18.75 8.25C18.75 8.4625 18.678 8.64075 18.534 8.78475C18.39 8.92875 18.212 9.0005 18 9H6ZM8.25 12.75C8.0375 12.75 7.85925 12.678 7.71525 12.534C7.57125 12.39 7.4995 12.212 7.5 12C7.5 11.7875 7.572 11.6093 7.716 11.4653C7.86 11.3213 8.038 11.2495 8.25 11.25H15.75C15.9625 11.25 16.1407 11.322 16.2847 11.466C16.4287 11.61 16.5005 11.788 16.5 12C16.5 12.2125 16.428 12.3907 16.284 12.5347C16.14 12.6788 15.962 12.7505 15.75 12.75H8.25Z" fill="#717171"/>
</svg>
