<svg width="42" height="42" viewBox="0 0 42 42" fill="none" xmlns="http://www.w3.org/2000/svg">
<circle cx="21" cy="21" r="21" fill="#CAF9D2" fill-opacity="0.6"/>
<path d="M27.875 22.7917V26.3333C27.875 27.245 27.2192 28.03 26.315 28.15C24.5759 28.3808 22.8017 28.5 21 28.5C19.1984 28.5 17.4242 28.3808 15.685 28.15C14.7809 28.03 14.125 27.245 14.125 26.3333V22.7917M27.875 22.7917C28.0729 22.6197 28.2312 22.407 28.3391 22.168C28.447 21.9291 28.5019 21.6697 28.5 21.4075V18.255C28.5 17.3542 27.86 16.5758 26.9692 16.4425C26.0253 16.3012 25.0766 16.1936 24.125 16.12M27.875 22.7917C27.7134 22.9292 27.525 23.0375 27.3142 23.1083C25.2777 23.784 23.1457 24.1273 21 24.125C18.7934 24.125 16.6709 23.7675 14.6859 23.1083C14.4803 23.0399 14.2898 22.9324 14.125 22.7917M14.125 22.7917C13.9272 22.6197 13.7688 22.407 13.661 22.168C13.5531 21.9291 13.4982 21.6697 13.5 21.4075V18.255C13.5 17.3542 14.14 16.5758 15.0309 16.4425C15.9748 16.3012 16.9235 16.1936 17.875 16.12M24.125 16.12V15.375C24.125 14.8777 23.9275 14.4008 23.5759 14.0492C23.2242 13.6975 22.7473 13.5 22.25 13.5H19.75C19.2528 13.5 18.7759 13.6975 18.4242 14.0492C18.0726 14.4008 17.875 14.8777 17.875 15.375V16.12M24.125 16.12C22.0448 15.9592 19.9553 15.9592 17.875 16.12M21 21.625H21.0067V21.6317H21V21.625Z" stroke="#3D8352" stroke-width="1.8" stroke-linecap="round" stroke-linejoin="round"/>
</svg>
