<svg width="14" height="13" viewBox="0 0 14 13" fill="none" xmlns="http://www.w3.org/2000/svg">
<path d="M13.9995 6.3059C13.9995 3.53067 12.3844 1.13274 10.043 0.000488281V12.6113C12.3844 11.4791 13.9995 9.08113 13.9995 6.3059Z" fill="#D80027"/>
<path d="M0 6.30541C0 9.08064 1.61506 11.4786 3.95653 12.6108V0C1.61506 1.13225 0 3.53019 0 6.30541Z" fill="#D80027"/>
<path d="M8.21662 7.21876L9.43399 6.61006L8.82532 6.30573V5.69703L7.60792 6.30573L8.21662 5.08833H7.60792L6.99922 4.17529L6.39052 5.08833H5.78182L6.39052 6.30573L5.17313 5.69703V6.30573L4.56445 6.61006L5.78182 7.21876L5.47749 7.82746H6.69489V8.7405H7.30356V7.82746H8.52096L8.21662 7.21876Z" fill="#D80027"/>
</svg>
