<svg width="18" height="80" viewBox="0 0 18 80" fill="none" xmlns="http://www.w3.org/2000/svg">
<path d="M0.348832 17.3651C0.348832 7.96727 7.96729 0.348832 17.3651 0.348832V24.9777H0.348832V17.3651Z" fill="#E9E9EB" stroke="#E9E9EB" stroke-width="0.695398"/>
<rect x="0.348832" y="24.9767" width="17.0163" height="30.0438" fill="#E9E9EB" stroke="#E9E9EB" stroke-width="0.695398"/>
<path d="M0.348832 62.6339C0.348832 72.0317 7.96729 79.6502 17.3651 79.6502V55.0213H0.348832V62.6339Z" fill="#E9E9EB"/>
<path d="M17.3651 55.0213H17.714V54.6724H17.3651V55.0213ZM0.348832 55.0213V54.6724H-4.2881e-05V55.0213H0.348832ZM17.3651 79.6502V79.999H17.714V79.6502H17.3651ZM17.714 79.6502V55.0213H17.0163V79.6502H17.714ZM17.3651 54.6724H0.348832V55.3702H17.3651V54.6724ZM-4.2881e-05 55.0213V62.6339H0.697706V55.0213H-4.2881e-05ZM17.3651 79.3013C8.15996 79.3013 0.697706 71.839 0.697706 62.6339H-4.2881e-05C-4.2881e-05 72.2244 7.77461 79.999 17.3651 79.999V79.3013Z" fill="#E9E9EB"/>
</svg>
