<svg width="14" height="13" viewBox="0 0 14 13" fill="none" xmlns="http://www.w3.org/2000/svg">
<path d="M11.761 12.7966L7.61878 8.65434C7.24893 8.95021 6.82361 9.18445 6.34282 9.35704C5.86202 9.52963 5.3504 9.61593 4.80797 9.61593C3.4642 9.61593 2.32706 9.15042 1.39653 8.2194C0.466003 7.28838 0.000493125 6.15124 0 4.80797C0 3.4642 0.46551 2.32706 1.39653 1.39653C2.32755 0.466003 3.46469 0.000493125 4.80797 0C6.15173 0 7.28888 0.46551 8.2194 1.39653C9.14993 2.32755 9.61544 3.46469 9.61593 4.80797C9.61593 5.3504 9.52963 5.86202 9.35704 6.34282C9.18445 6.82361 8.95021 7.24893 8.65434 7.61878L12.8151 11.7795C12.9507 11.9151 13.0185 12.0816 13.0185 12.2788C13.0185 12.4761 12.9445 12.6486 12.7966 12.7966C12.661 12.9322 12.4884 13 12.2788 13C12.0692 13 11.8966 12.9322 11.761 12.7966ZM4.80797 8.13656C5.73257 8.13656 6.51862 7.81282 7.16609 7.16535C7.81356 6.51788 8.13705 5.73208 8.13656 4.80797C8.13656 3.88336 7.81282 3.09732 7.16535 2.44984C6.51788 1.80237 5.73208 1.47888 4.80797 1.47937C3.88336 1.47937 3.09732 1.80311 2.44984 2.45058C1.80237 3.09806 1.47888 3.88385 1.47937 4.80797C1.47937 5.73257 1.80311 6.51862 2.45058 7.16609C3.09806 7.81356 3.88385 8.13705 4.80797 8.13656Z" fill="#717171"/>
</svg>
